<svg width="64" height="64" viewBox="0 0 64 64" fill="none" xmlns="http://www.w3.org/2000/svg">
<g clip-path="url(#clip0_423_186)">
<path d="M58.375 33.8748C59.4106 33.8748 60.25 33.0349 60.25 31.9998V26.3748H62.125C62.9316 26.3748 63.6479 25.8586 63.9033 25.093C64.1587 24.3279 63.896 23.4851 63.251 23.0002L33.126 0.375732C32.459 -0.125244 31.541 -0.125244 30.874 0.375732L0.749023 23.0002C0.104004 23.4851 -0.158691 24.3279 0.0966797 25.093C0.352051 25.8586 1.06836 26.3748 1.875 26.3748H3.75V31.9998C3.75 33.0349 4.58984 33.8748 5.625 33.8748H7.5V52.6248H5.625C4.58984 52.6248 3.75 53.4641 3.75 54.4998V60.2498H1.875C0.839844 60.2498 0 61.0891 0 62.1248C0 63.1599 0.839844 63.9998 1.875 63.9998C3.99414 63.9998 60.0107 63.9998 62.125 63.9998C63.1602 63.9998 64 63.1599 64 62.1248C64 61.0891 63.1602 60.2498 62.125 60.2498H60.25V54.4998C60.25 53.4641 59.4106 52.6248 58.375 52.6248H56.5V33.8748H58.375ZM32 4.21948L56.5063 22.6248H7.49365L32 4.21948ZM56.5 26.3748V30.1248H7.5V26.3748H56.5ZM37.625 52.6248V33.8748H45.125V52.6248H37.625ZM18.875 52.6248V33.8748H26.375V52.6248H18.875ZM30.125 33.8748H33.875V52.6248H30.125V33.8748ZM11.25 33.8748H15.125V52.6248H11.25V33.8748ZM7.5 60.2498V56.3748C12.5444 56.3748 50.5688 56.3748 56.5 56.3748V60.2498H7.5ZM52.75 52.6248H48.875V33.8748H52.75V52.6248Z" fill="white"/>
<path d="M32 9.5C28.8984 9.5 26.375 12.0234 26.375 15.125C26.375 18.2266 28.8984 20.75 32 20.75C35.1016 20.75 37.625 18.2266 37.625 15.125C37.625 12.0234 35.1016 9.5 32 9.5ZM32 17C30.9663 17 30.125 16.1587 30.125 15.125C30.125 14.0913 30.9663 13.25 32 13.25C33.0337 13.25 33.875 14.0913 33.875 15.125C33.875 16.1587 33.0337 17 32 17Z" fill="white"/>
</g>
<defs>
<clipPath id="clip0_423_186">
<rect width="64" height="64" fill="white"/>
</clipPath>
</defs>
</svg>
