<svg width="118" height="120" viewBox="0 0 118 120" fill="none" xmlns="http://www.w3.org/2000/svg">
<path d="M0.0234375 64.2559H7.19891V65.1787H5.58385H5.51464C5.33006 65.1787 5.19163 65.248 5.09934 65.3864C4.98398 65.5248 4.93783 65.6633 4.93783 65.8479V77.2917C4.93783 79.1375 5.44542 80.5679 6.4606 81.5831C7.47578 82.5983 8.90626 83.129 10.729 83.129C11.7672 83.129 12.7363 82.8752 13.5669 82.3676C14.4205 81.86 15.0896 81.1678 15.5741 80.2911C16.0587 79.4143 16.2894 78.4222 16.2894 77.3378V65.8709C16.2894 65.6633 16.2432 65.4787 16.1279 65.3403C16.0125 65.2018 15.8741 65.1557 15.7126 65.1787H14.0975V64.2559H19.358V65.1787H18.089H18.0198C17.8352 65.1787 17.6968 65.248 17.6045 65.3864C17.4891 65.5248 17.443 65.6633 17.443 65.8479V77.6378C17.443 78.8837 17.12 79.9911 16.497 80.9832C15.8741 81.9754 14.9973 82.7598 13.8899 83.3135C12.7824 83.8673 11.5365 84.1441 10.1291 84.1441C7.47578 84.1441 5.42235 83.5673 4.01494 82.3906C2.58446 81.214 1.89229 79.5297 1.89229 77.2917V65.8709C1.89229 65.6863 1.82307 65.5018 1.70771 65.3633C1.59235 65.2249 1.43085 65.1557 1.26934 65.1787H0.0234375V64.2559Z" fill="white"/>
<path d="M22.3578 77.1758C22.8654 81.2135 24.8727 83.2439 28.3797 83.2439C29.4641 83.2439 30.3408 82.8747 30.9868 82.1595C31.6329 81.4442 31.9559 80.4983 31.979 79.3216C31.979 78.4679 31.679 77.7296 31.1022 77.0836C30.5254 76.4375 29.7409 75.93 28.7258 75.5377L25.3803 74.1995C24.2036 73.715 23.3038 73.069 22.7039 72.2615C22.104 71.4539 21.781 70.508 21.781 69.4236C21.781 68.4315 22.0117 67.5316 22.4732 66.701C22.9346 65.8704 23.6268 65.2013 24.5266 64.7168C25.4495 64.2323 26.5339 63.9785 27.8259 63.9785C28.5181 63.9785 29.118 64.0477 29.6025 64.1631C30.087 64.2785 30.5715 64.4169 31.0561 64.5784C31.5406 64.7399 31.8636 64.8553 32.0482 64.9245C32.3943 65.0629 32.6942 65.1321 32.9249 65.1321C33.3171 65.1321 33.6402 65.086 33.8709 64.9937V69.6543H33.1095C33.1095 68.2238 32.648 67.0933 31.7252 66.1935C30.8023 65.3167 29.6256 64.8783 28.2412 64.8783C27.1107 64.8783 26.1878 65.1783 25.4956 65.8012C24.8035 66.4242 24.4574 67.3009 24.4574 68.4084C24.4574 69.1236 24.7112 69.7697 25.2188 70.3465C25.7264 70.9233 26.4185 71.3847 27.2722 71.7308L30.2947 72.9305C31.9559 73.5996 33.1326 74.361 33.8478 75.1686C34.563 75.9761 34.9091 77.0374 34.9091 78.3295C34.9091 79.46 34.6323 80.4752 34.0785 81.3519C33.5248 82.2287 32.7634 82.9208 31.8174 83.4054C30.8715 83.8899 29.8332 84.1437 28.7258 84.1437C28.0567 84.1437 27.4568 84.1206 26.9492 84.0514C26.4416 84.0052 25.9109 83.8899 25.3341 83.7053C24.1805 83.3823 23.3038 83.2208 22.7501 83.2208C22.5424 83.2208 22.3347 83.2439 22.1271 83.29C21.9194 83.3361 21.7349 83.3592 21.6426 83.3823V77.1528H22.3578V77.1758Z" fill="white"/>
<path d="M56.4352 82.9439V83.8207H47.76V82.9439H49.3751C50.0211 83.0131 50.3672 82.7593 50.3672 82.1595C50.3672 81.7903 50.2518 81.3519 50.0442 80.8905L48.4291 77.0374H40.7922L39.2925 80.7059C38.9926 81.375 38.8311 81.9287 38.8311 82.344C38.8311 82.8055 39.0618 82.9901 39.5463 82.967H41.1152V83.8437H35.4395V82.967H36.4316C36.8699 82.967 37.2391 82.7593 37.516 82.344C37.839 81.8595 38.162 81.2366 38.5081 80.4521L45.3605 63.9785H46.2142L53.1359 80.5213C53.4358 81.3058 53.7588 81.9287 54.0818 82.3902C54.3818 82.7824 54.774 82.9901 55.2354 82.9901H56.4352V82.9439ZM41.1844 76.0914H48.0369L44.5761 67.8316L41.1844 76.0914Z" fill="white"/>
<path d="M24.9873 111.532V112.409H17.7887V111.532H19.4038C19.8421 111.532 20.0498 111.302 20.0498 110.817V95.4278L12.8051 111.532H10.8901L3.04553 95.151V110.817C3.04553 111.302 3.25319 111.532 3.66849 111.532H5.28355V112.409H0V111.532H1.26897C1.70735 111.532 1.91499 111.302 1.91499 110.817V93.9743C1.91499 93.8128 1.79963 93.7666 1.59198 93.7666H0.207649V92.8438H5.28355L12.9205 108.694L20.0959 92.8438H24.8488V93.7666H23.7414H23.6721C23.4876 93.7666 23.3491 93.8358 23.2568 93.9743C23.1415 94.1127 23.0953 94.2511 23.0953 94.4357V110.817C23.0953 111.302 23.303 111.532 23.7414 111.532H24.9873Z" fill="#F16B64"/>
<path d="M40.6075 111.534V112.41H36.1545V109.919C35.67 110.865 35.0471 111.534 34.3088 111.949C33.5474 112.364 32.6476 112.572 31.6093 112.572C30.225 112.572 29.1867 112.249 28.4715 111.649C27.7562 111.026 27.4102 110.103 27.4102 108.88C27.4102 107.196 28.1023 105.95 29.5328 105.166C30.9402 104.381 33.1551 103.966 36.1545 103.966V102.074C36.1545 101.059 35.9238 100.321 35.4393 99.8822C34.9548 99.4438 34.1934 99.2361 33.109 99.2361C31.4478 99.2361 30.6172 99.6976 30.6172 100.62C30.6172 100.805 30.6633 100.99 30.7556 101.22C30.8479 101.451 30.8941 101.659 30.8941 101.866C30.8941 102.236 30.7787 102.512 30.5249 102.697C30.2942 102.882 29.9712 102.974 29.602 102.974C29.1406 102.974 28.7945 102.835 28.5407 102.559C28.2869 102.282 28.1715 101.913 28.1715 101.451C28.1715 100.528 28.6561 99.7899 29.602 99.2131C30.5711 98.6362 31.84 98.3594 33.4551 98.3594C37.1005 98.3594 38.9232 99.9052 38.9232 102.974V111.026C38.9232 111.441 39.0616 111.557 39.3385 111.557H40.6075V111.534ZM35.024 110.195C35.6931 109.388 36.0623 108.373 36.1315 107.104V104.843C34.078 104.843 32.6014 105.143 31.7016 105.742C30.8018 106.342 30.3634 107.288 30.3634 108.603C30.3634 109.526 30.548 110.219 30.9402 110.68C31.3324 111.141 31.8631 111.372 32.5553 111.372C33.5243 111.395 34.3549 111.003 35.024 110.195Z" fill="#F16B64"/>
<path d="M88.505 111.534V112.41H84.052V109.919C83.5675 110.865 82.9445 111.534 82.2062 111.949C81.4448 112.364 80.545 112.572 79.5068 112.572C78.1224 112.572 77.0842 112.249 76.3689 111.649C75.6537 111.026 75.3076 110.103 75.3076 108.88C75.3076 107.196 75.9998 105.95 77.4303 105.166C78.8377 104.381 81.0526 103.966 84.052 103.966V102.074C84.052 101.059 83.8213 100.321 83.3368 99.8822C82.8522 99.4438 82.0909 99.2361 81.0065 99.2361C79.3453 99.2361 78.5147 99.6976 78.5147 100.62C78.5147 100.805 78.5608 100.99 78.6531 101.22C78.7454 101.451 78.7915 101.659 78.7915 101.866C78.7915 102.236 78.6762 102.512 78.4224 102.697C78.1916 102.882 77.8686 102.974 77.4995 102.974C77.038 102.974 76.692 102.835 76.4382 102.559C76.1844 102.282 76.069 101.913 76.069 101.451C76.069 100.528 76.5535 99.7899 77.4995 99.2131C78.4685 98.6362 79.7375 98.3594 81.3526 98.3594C84.998 98.3594 86.8207 99.9052 86.8207 102.974V111.026C86.8207 111.441 86.9591 111.557 87.236 111.557H88.505V111.534ZM82.9215 110.195C83.5906 109.388 83.9597 108.373 84.0289 107.104V104.843C81.9755 104.843 80.4989 105.143 79.5991 105.742C78.6992 106.342 78.2609 107.288 78.2609 108.603C78.2609 109.526 78.4454 110.219 78.8377 110.68C79.2299 111.141 79.7606 111.372 80.4527 111.372C81.4448 111.395 82.2524 111.003 82.9215 110.195Z" fill="#F16B64"/>
<path d="M52.5593 99.0512C53.0207 99.5357 53.2745 100.136 53.2745 100.874C53.2745 101.381 53.1591 101.751 52.9053 102.027C52.6516 102.281 52.3285 102.42 51.9132 102.42C51.6133 102.42 51.3364 102.327 51.0826 102.166C50.8288 102.004 50.7135 101.751 50.7135 101.405C50.7135 101.22 50.7596 100.966 50.8519 100.643C50.9442 100.343 50.9904 100.089 50.9904 99.9279C50.9904 99.7664 50.9211 99.6049 50.8058 99.4434C50.6904 99.305 50.5058 99.2357 50.229 99.2357C49.5599 99.2357 48.96 99.5588 48.4524 100.205C47.9448 100.851 47.5526 101.635 47.2757 102.604C46.9988 103.55 46.8373 104.473 46.7912 105.35V111.026C46.7912 111.441 46.9296 111.556 47.2065 111.556H49.2138V112.433H42.4998V111.556H43.538C43.8149 111.556 43.9533 111.441 43.9533 111.026V100.112C43.9533 99.6741 43.8149 99.4665 43.538 99.4665H42.3613V98.682H46.7912V101.797C47.2988 100.574 47.8525 99.6972 48.4755 99.1665C49.0984 98.6359 49.8137 98.359 50.6212 98.359C51.4287 98.3359 52.0747 98.5666 52.5593 99.0512Z" fill="#F16B64"/>
<path d="M65.0173 99.0512C65.4787 99.5357 65.7325 100.136 65.7325 100.874C65.7325 101.381 65.6172 101.751 65.3634 102.027C65.1096 102.281 64.7865 102.42 64.3712 102.42C64.0713 102.42 63.7944 102.327 63.5406 102.166C63.2869 102.004 63.1715 101.751 63.1715 101.405C63.1715 101.22 63.2176 100.966 63.3099 100.643C63.4022 100.343 63.4484 100.089 63.4484 99.9279C63.4484 99.7664 63.3791 99.6049 63.2638 99.4434C63.1484 99.305 62.9638 99.2357 62.687 99.2357C62.0179 99.2357 61.418 99.5588 60.9104 100.205C60.4028 100.851 60.0106 101.635 59.7337 102.604C59.4569 103.55 59.2954 104.473 59.2492 105.35V111.026C59.2492 111.441 59.3876 111.556 59.6645 111.556H61.6718V112.433H54.9578V111.556H55.996C56.2729 111.556 56.4113 111.441 56.4113 111.026V100.112C56.4113 99.6741 56.2729 99.4665 55.996 99.4665H54.8193V98.682H59.2492V101.797C59.7568 100.574 60.3105 99.6972 60.9335 99.1665C61.5564 98.6359 62.2717 98.359 63.0792 98.359C63.8867 98.3359 64.5558 98.5666 65.0173 99.0512Z" fill="#F16B64"/>
<path d="M71.7319 111.002C71.7319 111.417 71.8703 111.625 72.1472 111.625L73.3239 111.556V112.409H67.2559V111.556L68.4556 111.625C68.7325 111.625 68.8709 111.417 68.8709 111.002V100.089C68.8709 99.7195 68.7325 99.4888 68.4787 99.4427L67.2789 99.3965V98.6582H71.7319V111.002Z" fill="#F16B64"/>
<path d="M100.803 98.1283C100.342 98.359 99.9495 98.6589 99.6726 99.005C101.288 99.8125 102.095 101.22 102.095 103.227C102.095 104.658 101.588 105.834 100.549 106.757C99.5342 107.657 98.1729 108.119 96.4887 108.119C95.5658 108.119 94.7121 107.957 93.9277 107.634C93.9277 107.634 93.0971 107.888 92.8202 108.626C92.5433 109.388 93.4431 109.849 94.6429 109.849H99.0036C100.619 109.849 101.841 110.195 102.649 110.887C103.48 111.579 103.872 112.756 103.872 114.394C103.872 115.502 103.549 116.494 102.903 117.347C102.257 118.201 101.357 118.847 100.157 119.309C98.9805 119.77 97.6192 120.001 96.0734 120.001C94.1584 120.001 92.6818 119.632 91.6435 118.893C90.6052 118.155 90.0977 117.071 90.0977 115.64C90.0977 114.763 90.3515 114.025 90.836 113.402C91.3205 112.779 92.0588 112.248 93.0509 111.787C91.4359 111.487 90.6283 110.772 90.6283 109.618C90.6283 109.203 90.8821 108.718 91.0898 108.419C91.5051 107.772 93.0509 107.173 93.0509 107.173C92.4049 106.757 91.8742 106.227 91.5051 105.558C91.1128 104.888 90.9283 104.127 90.9283 103.25C90.9283 101.797 91.4359 100.597 92.4741 99.6972C93.5124 98.7974 94.8505 98.3359 96.4887 98.3359C97.4116 98.3359 98.2422 98.4744 98.9805 98.7282C99.5342 97.9898 100.203 97.3207 100.988 96.7439C101.795 96.1671 102.395 95.8672 102.834 95.8672C103.387 95.8672 103.756 96.0056 103.987 96.3056C104.218 96.6055 104.333 96.9285 104.333 97.2977C104.333 97.5745 104.241 97.8514 104.033 98.1283C103.826 98.3821 103.595 98.5205 103.272 98.5205C103.018 98.5205 102.81 98.4744 102.672 98.4051C102.534 98.3359 102.395 98.1975 102.257 98.036C102.118 97.8514 101.957 97.7822 101.772 97.7822C101.611 97.7822 101.288 97.8975 100.803 98.1283ZM95.2658 111.949C94.6429 111.949 94.043 112.133 93.4893 112.479C92.9355 112.825 92.5203 113.287 92.1972 113.84C91.8742 114.394 91.7127 114.971 91.7127 115.571C91.7127 116.632 92.0819 117.509 92.8202 118.155C93.5585 118.801 94.6429 119.147 96.0734 119.147C97.8961 119.147 99.2804 118.732 100.273 117.901C101.265 117.071 101.749 115.986 101.749 114.625C101.749 113.725 101.495 113.056 100.988 112.618C100.48 112.179 99.6726 111.972 98.5421 111.972H95.2658V111.949ZM98.6113 106.434C99.0036 105.811 99.1881 104.75 99.1881 103.25C99.1881 101.797 99.0036 100.759 98.5883 100.136C98.196 99.5357 97.5039 99.2127 96.4887 99.2127C95.4735 99.2127 94.7813 99.5126 94.4122 100.089C94.043 100.666 93.8354 101.728 93.8354 103.25C93.8354 104.312 93.9046 105.142 94.0661 105.742C94.2276 106.342 94.4814 106.757 94.8736 107.011C95.2658 107.265 95.7965 107.38 96.4887 107.38C97.5269 107.357 98.2422 107.057 98.6113 106.434Z" fill="#F16B64"/>
<path d="M115.962 99.9733C117.023 101.081 117.577 102.581 117.623 104.519V105.465H108.187C108.187 107.449 108.533 108.972 109.225 110.033C109.917 111.094 110.955 111.625 112.317 111.648C113.401 111.648 114.324 111.371 115.085 110.817C115.847 110.264 116.4 109.594 116.746 108.787L117.508 109.341C117.069 110.379 116.331 111.21 115.293 111.809C114.255 112.409 113.124 112.709 111.878 112.709C107.448 112.709 105.233 110.31 105.233 105.534C105.233 103.157 105.787 101.358 106.895 100.135C108.002 98.912 109.64 98.2891 111.809 98.2891C113.516 98.3352 114.901 98.8889 115.962 99.9733ZM109.086 100.712C108.51 101.727 108.21 103.019 108.21 104.634H114.162C114.37 104.634 114.555 104.565 114.647 104.403C114.762 104.242 114.808 103.965 114.808 103.55C114.808 102.073 114.578 100.965 114.093 100.25C113.632 99.535 112.847 99.1889 111.763 99.1889C110.563 99.212 109.663 99.7195 109.086 100.712Z" fill="#F16B64"/>
<path d="M72.5158 93.9295V93.6527C71.3853 93.6527 70.4393 92.7298 70.4393 91.5762H70.1624C70.1624 92.7067 69.2396 93.6527 68.0859 93.6527V93.9295C69.2165 93.9295 70.1624 94.8524 70.1624 96.006H70.4393C70.4624 94.8524 71.3853 93.9295 72.5158 93.9295Z" fill="#F16B64"/>
<path d="M43.1224 31.1939C43.1224 23.1186 36.5468 16.543 28.4715 16.543C27.0641 16.543 25.7029 16.7506 24.4108 17.1198C23.4187 17.3966 22.4727 17.7889 21.5729 18.2734C19.5195 17.1659 17.1661 16.543 14.6743 16.543C6.59903 16.543 0.0234375 23.1186 0.0234375 31.1939C0.0234375 31.2169 0.0234375 31.2169 0.0234375 31.24C0.0234375 31.9552 0.092655 32.6474 0.208016 33.3396C1.98458 46.9753 20.0502 54.9121 20.8577 55.2582L21.596 55.5581L22.3343 55.2582C23.1418 54.9121 41.1843 46.9983 42.984 33.3857C43.0532 32.6474 43.1224 31.9322 43.1224 31.1939ZM3.715 31.1939C3.715 23.7877 8.62939 17.7658 14.6743 17.7658C16.5432 17.7658 18.2967 18.3426 19.8425 19.3578C20.4655 19.75 21.0192 20.2345 21.5729 20.7652C24.0417 23.2339 25.6336 26.9716 25.6336 31.1939C25.6336 34.4009 24.7108 37.3541 23.1649 39.6844C23.7879 40.3535 24.48 40.9303 25.2414 41.3226C27.7563 38.6923 29.3252 35.1161 29.3252 31.1939C29.3252 26.3256 26.9488 22.0342 23.2803 19.3578C24.0647 18.8502 24.8953 18.458 25.7721 18.1811C26.6257 17.9042 27.5256 17.7658 28.4485 17.7658C34.4934 17.7658 39.4078 23.7877 39.4078 31.1939C39.4078 31.886 39.3386 32.532 39.2693 33.1781C38.4849 39.6383 33.9397 44.6219 28.4485 44.6219C26.5796 44.6219 24.8261 44.0451 23.2803 43.0299C22.6804 42.6377 22.1036 42.1532 21.5499 41.6225C19.0811 39.1538 17.4891 35.4161 17.4891 31.2169C17.4891 28.0099 18.412 25.0566 19.9579 22.7263C19.3349 22.0572 18.6427 21.4804 17.8814 21.0882C15.3665 23.7184 13.7976 27.2946 13.7976 31.2169C13.7976 36.0852 16.174 40.3766 19.8425 43.053C19.0581 43.5606 18.2274 43.9528 17.3507 44.2297C16.497 44.5065 15.5972 44.645 14.6743 44.645C9.16005 44.645 4.61481 39.6383 3.85343 33.155C3.78421 32.532 3.73807 31.9091 3.73807 31.2631C3.715 31.2169 3.715 31.1939 3.715 31.1939ZM21.5729 53.3663C19.5887 52.4203 13.9822 49.6517 9.55228 44.8988C11.1443 45.4986 12.8747 45.8447 14.6743 45.8447C16.0817 45.8447 17.443 45.6371 18.735 45.2679C19.7271 44.9911 20.6731 44.5988 21.5729 44.1143C23.6264 45.2218 25.9797 45.8447 28.4715 45.8447C30.2712 45.8447 32.0016 45.4986 33.5936 44.8988C29.1637 49.6286 23.5571 52.4203 21.5729 53.3663Z" fill="#F16B64"/>
<path d="M21.5733 7.1524L18.5739 9.25198L19.6122 5.74499L16.7051 3.53006L20.3736 3.46084L21.5733 0L22.7731 3.46084L26.4416 3.53006L23.5114 5.74499L24.5727 9.25198L21.5733 7.1524Z" fill="white"/>
<path d="M8.19051 10.6797L5.19112 12.7793L6.25244 9.27234L3.32227 7.0574L6.99075 6.98818L8.19051 3.52734L9.39027 6.98818L13.0588 7.0574L10.1286 9.27234L11.1899 12.7793L8.19051 10.6797Z" fill="white"/>
<path d="M34.9552 10.6797L31.9327 12.7793L32.994 9.27234L30.0869 7.0574L33.7323 6.98818L34.9552 3.52734L36.1549 6.98818L39.8003 7.0574L36.8932 9.27234L37.9546 12.7793L34.9552 10.6797Z" fill="white"/>
</svg>
