<svg width="16" height="15" viewBox="0 0 16 15" fill="none" xmlns="http://www.w3.org/2000/svg">
<path d="M14.6669 10.7807V12.7807C14.6677 12.9664 14.6297 13.1502 14.5553 13.3203C14.4809 13.4904 14.3718 13.6431 14.235 13.7686C14.0982 13.8941 13.9367 13.9897 13.7608 14.0492C13.5849 14.1087 13.3985 14.1308 13.2136 14.114C11.1622 13.8911 9.19161 13.1901 7.46028 12.0674C5.8495 11.0438 4.48384 9.67816 3.46028 8.06738C2.3336 6.32818 1.63244 4.34804 1.41361 2.28738C1.39695 2.10303 1.41886 1.91722 1.47795 1.7418C1.53703 1.56637 1.63199 1.40518 1.75679 1.26846C1.88159 1.13175 2.03348 1.02252 2.20281 0.94773C2.37213 0.872939 2.55517 0.834223 2.74028 0.834049H4.74028C5.06382 0.830865 5.37748 0.945435 5.62279 1.1564C5.8681 1.36737 6.02833 1.66035 6.07361 1.98072C6.15803 2.62076 6.31458 3.2492 6.54028 3.85405C6.62998 4.09266 6.64939 4.35199 6.59622 4.6013C6.54305 4.85061 6.41952 5.07946 6.24028 5.26072L5.39361 6.10738C6.34265 7.77641 7.72458 9.15834 9.39361 10.1074L10.2403 9.26071C10.4215 9.08147 10.6504 8.95795 10.8997 8.90478C11.149 8.85161 11.4083 8.87102 11.6469 8.96071C12.2518 9.18641 12.8802 9.34297 13.5203 9.42738C13.8441 9.47307 14.1399 9.63619 14.3513 9.88571C14.5627 10.1352 14.6751 10.4538 14.6669 10.7807Z" stroke="#1A1846" stroke-opacity="0.5" stroke-width="1.5" stroke-linecap="round" stroke-linejoin="round"/>
</svg>
