<svg width="52" height="52" viewBox="0 0 52 52" fill="none" xmlns="http://www.w3.org/2000/svg">
<path d="M47.4297 27.5232C48.2711 27.5232 48.9531 26.8409 48.9531 25.9998V21.4295H50.4766C51.132 21.4295 51.714 21.0101 51.9214 20.3881C52.1289 19.7664 51.9155 19.0816 51.3914 18.6877L26.9149 0.305283C26.3729 -0.101761 25.6271 -0.101761 25.0851 0.305283L0.608582 18.6877C0.0845031 19.0816 -0.128937 19.7664 0.0785523 20.3881C0.286041 21.0101 0.868042 21.4295 1.52344 21.4295H3.04688V25.9998C3.04688 26.8409 3.72925 27.5232 4.57031 27.5232H6.09375V42.7576H4.57031C3.72925 42.7576 3.04688 43.4396 3.04688 44.2811V48.9529H1.52344C0.682373 48.9529 0 49.6349 0 50.4764C0 51.3174 0.682373 51.9998 1.52344 51.9998C3.24524 51.9998 48.7587 51.9998 50.4766 51.9998C51.3176 51.9998 52 51.3174 52 50.4764C52 49.6349 51.3176 48.9529 50.4766 48.9529H48.9531V44.2811C48.9531 43.4396 48.2711 42.7576 47.4297 42.7576H45.9062V27.5232H47.4297ZM26 3.42833L45.9114 18.3826H6.08859L26 3.42833ZM45.9062 21.4295V24.4764H6.09375V21.4295H45.9062ZM30.5703 42.7576V27.5232H36.6641V42.7576H30.5703ZM15.3359 42.7576V27.5232H21.4297V42.7576H15.3359ZM24.4766 27.5232H27.5234V42.7576H24.4766V27.5232ZM9.14062 27.5232H12.2891V42.7576H9.14062V27.5232ZM6.09375 48.9529V45.8045C10.1924 45.8045 41.0872 45.8045 45.9062 45.8045V48.9529H6.09375ZM42.8594 42.7576H39.7109V27.5232H42.8594V42.7576Z" fill="#F16B64"/>
</svg>
