<svg width="34" height="34" viewBox="0 0 34 34" fill="none" xmlns="http://www.w3.org/2000/svg">
<path fill-rule="evenodd" clip-rule="evenodd" d="M2.42032 6.6193C2.94542 6.09419 3.65761 5.79919 4.40022 5.79919H14.2002C14.9734 5.79919 15.6002 6.426 15.6002 7.19919C15.6002 7.97239 14.9734 8.59919 14.2002 8.59919L4.40022 8.59919V26.7992H29.6002V25.0492C29.6002 24.276 30.227 23.6492 31.0002 23.6492C31.7734 23.6492 32.4002 24.276 32.4002 25.0492V26.7992C32.4002 27.5418 32.1052 28.254 31.5801 28.7791C31.055 29.3042 30.3428 29.5992 29.6002 29.5992H4.40022C3.65762 29.5992 2.94542 29.3042 2.42032 28.7791C1.89522 28.254 1.60022 27.5418 1.60022 26.7992V8.59919C1.60022 7.85659 1.89522 7.1444 2.42032 6.6193Z" fill="#F16B64"/>
<path fill-rule="evenodd" clip-rule="evenodd" d="M5.80023 16.2992C5.80023 15.526 6.42703 14.8992 7.20023 14.8992H12.8002C13.5734 14.8992 14.2002 15.526 14.2002 16.2992C14.2002 17.0724 13.5734 17.6992 12.8002 17.6992H7.20023C6.42703 17.6992 5.80023 17.0724 5.80023 16.2992ZM5.80023 21.8992C5.80023 21.126 6.42703 20.4992 7.20023 20.4992H24.0002C24.7734 20.4992 25.4002 21.126 25.4002 21.8992C25.4002 22.6724 24.7734 23.2992 24.0002 23.2992H7.20023C6.42703 23.2992 5.80023 22.6724 5.80023 21.8992Z" fill="#F16B64"/>
<path fill-rule="evenodd" clip-rule="evenodd" d="M24.0002 8.59919C22.4538 8.59919 21.2002 9.8528 21.2002 11.3992C21.2002 12.9456 22.4538 14.1992 24.0002 14.1992C25.5466 14.1992 26.8002 12.9456 26.8002 11.3992C26.8002 9.8528 25.5466 8.59919 24.0002 8.59919ZM18.4002 11.3992C18.4002 8.3064 20.9074 5.79919 24.0002 5.79919C27.093 5.79919 29.6002 8.3064 29.6002 11.3992C29.6002 14.492 27.093 16.9992 24.0002 16.9992C20.9074 16.9992 18.4002 14.492 18.4002 11.3992Z" fill="#F16B64"/>
<path fill-rule="evenodd" clip-rule="evenodd" d="M20.1399 14.8645C21.2268 14.4172 22.4652 14.1992 24.0002 14.1992C27.373 14.1992 30.6623 16.3585 32.2466 19.4548C32.5987 20.1432 32.3262 20.9867 31.6379 21.3389C30.9496 21.691 30.1061 21.4185 29.7539 20.7302C28.6039 18.4827 26.2275 16.9992 24.0002 16.9992C22.7353 16.9992 21.8761 17.1778 21.2055 17.4538C20.5342 17.7301 19.9628 18.1399 19.3061 18.7359C18.7336 19.2555 17.8482 19.2127 17.3286 18.6401C16.8089 18.0676 16.8518 17.1822 17.4243 16.6626C18.2075 15.9517 19.0537 15.3115 20.1399 14.8645Z" fill="#F16B64"/>
</svg>
