<svg width="34" height="34" viewBox="0 0 34 34" fill="none" xmlns="http://www.w3.org/2000/svg">
<g clip-path="url(#clip0_1072_1747)">
<path d="M11.4002 11.3992H22.6002M7.2002 19.7992H11.4002M22.6002 19.7992H26.8002" stroke="#F16B64" stroke-width="3" stroke-linecap="round" stroke-linejoin="round"/>
<path d="M1.6001 27.211V15.8141C1.60045 15.3462 1.69475 14.8832 1.8773 14.4531L5.84536 5.09698C6.10894 4.47461 6.54743 3.9441 7.10648 3.57121C7.66553 3.19831 8.32056 2.99943 8.99039 2.99921H25.0098C25.6794 2.99928 26.3343 3.19791 26.8934 3.57048C27.4524 3.94306 27.891 4.47321 28.1548 5.09525L32.1246 14.4514C32.307 14.8826 32.4007 15.3469 32.4001 15.8159V27.211M1.6001 27.211H32.4001M1.6001 27.211V31.3616C1.6001 31.6368 1.70826 31.9007 1.9008 32.0953C2.09334 32.2899 2.35448 32.3992 2.62676 32.3992H9.12899C9.40127 32.3992 9.66241 32.2899 9.85495 32.0953C10.0475 31.9007 10.1557 31.6368 10.1557 31.3616V27.211M1.6001 27.211H10.1557M32.4001 27.211V31.3616C32.4001 31.6368 32.2919 31.9007 32.0994 32.0953C31.9069 32.2899 31.6457 32.3992 31.3734 32.3992H24.8712C24.7364 32.3992 24.6029 32.3724 24.4783 32.3202C24.3538 32.2681 24.2406 32.1916 24.1452 32.0953C24.0499 31.9989 23.9743 31.8845 23.9227 31.7586C23.8711 31.6328 23.8445 31.4978 23.8445 31.3616V27.211M32.4001 27.211H23.8445M10.1557 27.211H23.8445" stroke="#F16B64" stroke-width="3"/>
</g>
<defs>
<clipPath id="clip0_1072_1747">
<rect width="33.6" height="33.6" fill="white" transform="translate(0.200195 0.199219)"/>
</clipPath>
</defs>
</svg>
