<svg width="34" height="34" viewBox="0 0 34 34" fill="none" xmlns="http://www.w3.org/2000/svg">
<path d="M31.0002 28.1992V17.2428C31.0003 16.4806 30.8448 15.7263 30.5431 15.0263C30.2415 14.3262 29.8001 13.6951 29.246 13.1716L18.9238 3.41642C18.404 2.92492 17.7157 2.65106 17.0002 2.65106C16.2848 2.65106 15.5965 2.92492 15.0766 3.41642L4.75444 13.1716C4.20036 13.6951 3.75898 14.3262 3.45734 15.0263C3.1557 15.7263 3.00016 16.4806 3.00024 17.2428V28.1992C3.00024 28.9418 3.29524 29.654 3.82034 30.1791C4.34545 30.7042 5.05764 30.9992 5.80024 30.9992H28.2002C28.9428 30.9992 29.655 30.7042 30.1801 30.1791C30.7052 29.654 31.0002 28.9418 31.0002 28.1992Z" stroke="#F16B64" stroke-width="3" stroke-linecap="round" stroke-linejoin="round"/>
<line x1="11.5002" y1="22.4992" x2="22.5002" y2="22.4992" stroke="#F16B64" stroke-width="3" stroke-linecap="round"/>
</svg>
