<svg width="35" height="34" viewBox="0 0 35 34" fill="none" xmlns="http://www.w3.org/2000/svg">
<path d="M14.5996 25.3992H20.1996C20.5963 25.3992 20.929 25.2648 21.1978 24.996C21.4657 24.7282 21.5996 24.3959 21.5996 23.9992C21.5996 23.6026 21.4657 23.2703 21.1978 23.0024C20.929 22.7336 20.5963 22.5992 20.1996 22.5992H14.5996C14.2029 22.5992 13.8707 22.7336 13.6028 23.0024C13.334 23.2703 13.1996 23.6026 13.1996 23.9992C13.1996 24.3959 13.334 24.7282 13.6028 24.996C13.8707 25.2648 14.2029 25.3992 14.5996 25.3992ZM17.3996 21.1992C17.7963 21.1992 18.129 21.0648 18.3978 20.796C18.6657 20.5282 18.7996 20.1959 18.7996 19.7992V18.3992H20.1996C20.5963 18.3992 20.929 18.2648 21.1978 17.996C21.4657 17.7282 21.5996 17.3959 21.5996 16.9992C21.5996 16.6026 21.4657 16.2698 21.1978 16.001C20.929 15.7332 20.5963 15.5992 20.1996 15.5992H18.7996V14.1992C18.7996 13.8026 18.6657 13.4698 18.3978 13.201C18.129 12.9332 17.7963 12.7992 17.3996 12.7992C17.0029 12.7992 16.6707 12.9332 16.4028 13.201C16.134 13.4698 15.9996 13.8026 15.9996 14.1992V15.5992H14.5996C14.2029 15.5992 13.8707 15.7332 13.6028 16.001C13.334 16.2698 13.1996 16.6026 13.1996 16.9992C13.1996 17.3959 13.334 17.7282 13.6028 17.996C13.8707 18.2648 14.2029 18.3992 14.5996 18.3992H15.9996V19.7992C15.9996 20.1959 16.134 20.5282 16.4028 20.796C16.6707 21.0648 17.0029 21.1992 17.3996 21.1992ZM17.3996 30.9992C14.4363 30.9992 11.829 29.967 9.57779 27.9024C7.32565 25.837 6.19958 23.0426 6.19958 19.5192C6.19958 17.3026 7.03959 14.8992 8.71959 12.3092C10.3996 9.71923 12.9429 6.91923 16.3496 3.90923C16.4896 3.79256 16.6529 3.69923 16.8396 3.62923C17.0263 3.55923 17.2129 3.52423 17.3996 3.52423C17.5863 3.52423 17.7729 3.55923 17.9596 3.62923C18.1463 3.69923 18.3096 3.79256 18.4496 3.90923C21.8563 6.91923 24.3996 9.71923 26.0796 12.3092C27.7596 14.8992 28.5996 17.3026 28.5996 19.5192C28.5996 23.0426 27.4735 25.837 25.2214 27.9024C22.9702 29.967 20.3629 30.9992 17.3996 30.9992ZM17.3996 28.1992C19.7563 28.1992 21.7452 27.3942 23.3664 25.7842C24.9885 24.1742 25.7996 22.0859 25.7996 19.5192C25.7996 17.8626 25.1113 15.9665 23.7346 13.831C22.3579 11.6965 20.2463 9.32256 17.3996 6.70923C14.5529 9.32256 12.4413 11.6965 11.0646 13.831C9.68792 15.9665 8.99958 17.8626 8.99958 19.5192C8.99958 22.0859 9.81018 24.1742 11.4314 25.7842C13.0535 27.3942 15.0429 28.1992 17.3996 28.1992Z" fill="#F16B64"/>
</svg>
