<svg width="34" height="34" viewBox="0 0 34 34" fill="none" xmlns="http://www.w3.org/2000/svg">
<path d="M25.4002 28.8992C25.5858 28.8992 25.7639 28.8255 25.8951 28.6942C26.0264 28.5629 26.1002 28.3849 26.1002 28.1992V14.1992H19.8002C19.0576 14.1992 18.3454 13.9042 17.8203 13.3791C17.2952 12.854 17.0002 12.1418 17.0002 11.3992V5.09921H8.60017C8.41452 5.09921 8.23647 5.17296 8.1052 5.30423C7.97392 5.43551 7.90017 5.61355 7.90017 5.79921V16.0332C7.21103 15.8806 6.5011 15.8451 5.80017 15.9282V5.79921C5.80017 5.0566 6.09517 4.34441 6.62027 3.81931C7.14537 3.29421 7.85756 2.99921 8.60017 2.99921H17.241C17.2802 2.99921 17.318 3.00481 17.3558 3.00901C17.3838 3.01321 17.4118 3.01741 17.4398 3.01881C17.7394 3.03981 18.0362 3.09721 18.312 3.21201C18.3932 3.24561 18.4688 3.29041 18.5444 3.33381L18.6144 3.37441L18.6816 3.40801C18.7204 3.42577 18.7578 3.44636 18.7936 3.46961C18.9028 3.54381 19.0008 3.63201 19.1016 3.72161C19.1156 3.73561 19.1338 3.74961 19.152 3.76361C19.1757 3.78066 19.1981 3.79938 19.2192 3.81961L27.3812 11.9788C27.9058 12.504 28.2004 13.2161 28.2002 13.9584V28.1992C28.2002 28.9418 27.9052 29.654 27.3801 30.1791C26.855 30.7042 26.1428 30.9992 25.4002 30.9992H13.4862L15.5862 28.8992H25.4002ZM24.5294 12.0992L19.1002 6.66861V11.3992C19.1002 11.5849 19.1739 11.7629 19.3052 11.8942C19.4365 12.0255 19.6145 12.0992 19.8002 12.0992H24.5294Z" fill="#F16B64"/>
<path d="M18.4002 21.376C18.4002 23.6068 17.1382 25.896 14.65 28.1851C13.5201 29.2237 12.2899 30.1422 10.9782 30.9263C10.893 30.9741 10.7974 30.9992 10.7002 30.9992C10.603 30.9992 10.5073 30.9741 10.4221 30.9263C10.1156 30.7513 3.00018 26.6177 3.00018 21.376C2.99972 20.5913 3.2057 19.8209 3.59653 19.1456C3.98736 18.4703 4.54865 17.915 5.22157 17.5378C5.89448 17.1606 6.65425 16.9754 7.42122 17.0017C8.18818 17.0279 8.93412 17.2647 9.58083 17.6871C9.61642 17.7111 9.64631 17.7428 9.66831 17.7801C9.69031 17.8174 9.70386 17.8593 9.70796 17.9027C9.71206 17.946 9.70662 17.9898 9.69202 18.0307C9.67742 18.0716 9.65405 18.1086 9.62361 18.1391L8.34028 19.4514C8.23361 19.5607 8.17371 19.7088 8.17371 19.8633C8.17371 20.0177 8.23361 20.1658 8.34028 20.2752L10.7929 22.7757L9.72342 23.8766C9.66974 23.9302 9.62709 23.9943 9.59797 24.065C9.56885 24.1357 9.55385 24.2117 9.55385 24.2885C9.55385 24.3652 9.56885 24.4412 9.59797 24.5119C9.62709 24.5827 9.66974 24.6467 9.72342 24.7004C9.82989 24.8076 9.97325 24.8678 10.1227 24.868C10.2741 24.8674 10.4196 24.8074 10.5291 24.7004L12.0049 23.1913C12.1116 23.0819 12.1715 22.9338 12.1715 22.7794C12.1715 22.6249 12.1116 22.4768 12.0049 22.3675L9.55231 19.8596L11.0994 18.2849C11.4946 17.8763 11.9655 17.5524 12.4846 17.3321C13.0036 17.1118 13.5604 16.9995 14.1224 17.0018C15.2569 17.0018 16.345 17.4627 17.1473 18.283C17.9495 19.1033 18.4002 20.2159 18.4002 21.376Z" fill="#F16B64"/>
</svg>
