<svg width="34" height="34" viewBox="0 0 34 34" fill="none" xmlns="http://www.w3.org/2000/svg">
<path fill-rule="evenodd" clip-rule="evenodd" d="M4.40021 2.99912C4.40021 2.22592 5.02701 1.59912 5.80021 1.59912H14.2002C14.9734 1.59912 15.6002 2.22592 15.6002 2.99912C15.6002 3.77232 14.9734 4.39912 14.2002 4.39912H7.20021V26.0991C7.20021 27.7223 7.51357 28.5495 7.86009 28.9654C8.15738 29.3221 8.66952 29.5991 9.73771 29.5991H25.4002V21.8991C25.4002 21.1259 26.027 20.4991 26.8002 20.4991C27.5734 20.4991 28.2002 21.1259 28.2002 21.8991V30.9991C28.2002 31.7723 27.5734 32.3991 26.8002 32.3991H9.73771C8.1809 32.3991 6.72428 31.9761 5.70907 30.7579C4.74309 29.5987 4.40021 27.9759 4.40021 26.0991V2.99912Z" fill="#F16B64"/>
<path fill-rule="evenodd" clip-rule="evenodd" d="M23.3002 7.19923C20.594 7.19923 18.4002 9.39304 18.4002 12.0992C18.4002 14.8054 20.594 16.9992 23.3002 16.9992C26.0064 16.9992 28.2002 14.8054 28.2002 12.0992C28.2002 9.39304 26.0064 7.19923 23.3002 7.19923ZM15.6002 12.0992C15.6002 7.84664 19.0476 4.39923 23.3002 4.39923C27.5528 4.39923 31.0002 7.84664 31.0002 12.0992C31.0002 16.3518 27.5528 19.7992 23.3002 19.7992C19.0476 19.7992 15.6002 16.3518 15.6002 12.0992Z" fill="#F16B64"/>
<path fill-rule="evenodd" clip-rule="evenodd" d="M19.1541 2.61463C19.3665 1.87118 20.1414 1.44069 20.8848 1.6531C21.7357 1.89622 22.4182 2.28308 22.9574 2.73279C23.2238 2.37392 23.5662 2.03481 24.0056 1.7837C24.6769 1.40008 25.5321 1.63332 25.9157 2.30464C26.2993 2.97597 26.0661 3.83116 25.3948 4.21478C25.3024 4.26756 25.123 4.45132 24.9517 4.87335C24.7966 5.25528 24.7194 5.66006 24.6974 5.89243C24.6901 6.00403 24.6694 6.11289 24.6367 6.2171C24.5741 6.41781 24.4681 6.59788 24.3304 6.74733C24.1927 6.89714 24.0218 7.01783 23.8267 7.09679C23.6804 7.15628 23.5224 7.1916 23.358 7.19819C23.1937 7.20519 23.0332 7.18303 22.8825 7.1358C22.6817 7.07325 22.5015 6.96718 22.352 6.82937C22.2023 6.6917 22.0816 6.52082 22.0026 6.32574C21.9624 6.22679 21.9332 6.12247 21.9165 6.01444C21.8585 5.71983 21.4357 4.72256 20.1156 4.34537C19.3721 4.13296 18.9416 3.35808 19.1541 2.61463ZM15.6002 9.99924C16.3734 9.99924 17.0002 10.626 17.0002 11.3992V12.7992C17.0002 13.5724 16.3734 14.1992 15.6002 14.1992C14.827 14.1992 14.2002 13.5724 14.2002 12.7992V11.3992C14.2002 10.626 14.827 9.99924 15.6002 9.99924ZM31.0002 9.99924C31.7734 9.99924 32.4002 10.626 32.4002 11.3992V12.7992C32.4002 13.5724 31.7734 14.1992 31.0002 14.1992C30.227 14.1992 29.6002 13.5724 29.6002 12.7992V11.3992C29.6002 10.626 30.227 9.99924 31.0002 9.99924Z" fill="#F16B64"/>
<path d="M25.4002 12.7993C26.1734 12.7993 26.8002 12.1725 26.8002 11.3993C26.8002 10.6261 26.1734 9.99927 25.4002 9.99927C24.627 9.99927 24.0002 10.6261 24.0002 11.3993C24.0002 12.1725 24.627 12.7993 25.4002 12.7993Z" fill="#F16B64"/>
<path d="M21.2002 12.7993C21.9734 12.7993 22.6002 12.1725 22.6002 11.3993C22.6002 10.6261 21.9734 9.99927 21.2002 9.99927C20.427 9.99927 19.8002 10.6261 19.8002 11.3993C19.8002 12.1725 20.427 12.7993 21.2002 12.7993Z" fill="#F16B64"/>
<path fill-rule="evenodd" clip-rule="evenodd" d="M4.40021 25.3993C4.40021 24.6261 5.02701 23.9993 5.80021 23.9993H26.8002C27.5734 23.9993 28.2002 24.6261 28.2002 25.3993C28.2002 26.1725 27.5734 26.7993 26.8002 26.7993H5.80021C5.02701 26.7993 4.40021 26.1725 4.40021 25.3993Z" fill="#F16B64"/>
</svg>
