<svg width="24" height="28" viewBox="0 0 24 28" fill="none" xmlns="http://www.w3.org/2000/svg">
<path d="M20.0002 3.97386C17.8785 1.85213 15.0008 0.660156 12.0002 0.660156C8.99965 0.660156 6.12196 1.85213 4.00023 3.97386C1.8785 6.0956 0.686523 8.97328 0.686523 11.9739C0.686523 14.9744 1.8785 17.8521 4.00023 19.9739L11.0269 27.0139C11.1508 27.1388 11.2983 27.238 11.4608 27.3057C11.6233 27.3734 11.7975 27.4083 11.9736 27.4083C12.1496 27.4083 12.3239 27.3734 12.4863 27.3057C12.6488 27.238 12.7963 27.1388 12.9202 27.0139L20.0002 19.9072C22.1131 17.7943 23.3001 14.9286 23.3001 11.9405C23.3001 8.95246 22.1131 6.08677 20.0002 3.97386ZM18.0936 18.0005L12.0002 24.1205L5.9069 18.0005C4.70309 16.7956 3.88353 15.2609 3.55182 13.5903C3.22012 11.9196 3.39115 10.1882 4.0433 8.61477C4.69546 7.04135 5.79945 5.6966 7.21574 4.7505C8.63202 3.8044 10.297 3.29944 12.0002 3.29944C13.7035 3.29944 15.3684 3.8044 16.7847 4.7505C18.201 5.6966 19.305 7.04135 19.9572 8.61477C20.6093 10.1882 20.7803 11.9196 20.4486 13.5903C20.1169 15.2609 19.2974 16.7956 18.0936 18.0005ZM8.00023 7.88053C6.92385 8.96023 6.31942 10.4226 6.31942 11.9472C6.31942 13.4718 6.92385 14.9342 8.00023 16.0139C8.79991 16.8149 9.81835 17.362 10.9278 17.5864C12.0372 17.8108 13.1882 17.7026 14.2363 17.2754C15.2845 16.8482 16.1831 16.1209 16.8195 15.1849C17.4559 14.2488 17.8017 13.1457 17.8136 12.0139C17.8196 11.2581 17.674 10.5089 17.3854 9.81038C17.0969 9.11189 16.6712 8.47834 16.1336 7.9472C15.6051 7.40664 14.975 6.97591 14.2795 6.67982C13.5839 6.38372 12.8367 6.2281 12.0808 6.2219C11.3248 6.21571 10.5752 6.35906 9.87486 6.64372C9.17456 6.92837 8.53746 7.3487 8.00023 7.88053ZM14.2536 14.1205C13.7483 14.6335 13.0805 14.9551 12.3644 15.0302C11.6483 15.1053 10.9283 14.9294 10.3276 14.5324C9.72683 14.1355 9.28263 13.5422 9.07091 12.854C8.85919 12.1658 8.8931 11.4254 9.16684 10.7594C9.44059 10.0934 9.93716 9.54322 10.5717 9.20285C11.2062 8.86247 11.9392 8.75307 12.6455 8.89335C13.3517 9.03363 13.9873 9.41488 14.4436 9.97191C14.8998 10.5289 15.1485 11.2272 15.1469 11.9472C15.1275 12.7702 14.7822 13.5519 14.1869 14.1205H14.2536Z" fill="#F16B64"/>
</svg>
