<svg width="329" height="80" viewBox="0 0 329 80" fill="none" xmlns="http://www.w3.org/2000/svg">
<g clip-path="url(#clip0_671_253)">
<path d="M72.877 37.8086H83.1783V39.1237H80.877H80.7674C80.4934 39.1237 80.329 39.2333 80.1646 39.3976C80.0002 39.562 79.9454 39.7812 79.9454 40.0552V56.5483C79.9454 59.1785 80.6578 61.2607 82.1372 62.7401C83.6167 64.2196 85.6441 64.9319 88.2742 64.9319C89.8085 64.9319 91.1235 64.5483 92.3838 63.836C93.5893 63.1237 94.5756 62.1374 95.2331 60.8223C95.9454 59.562 96.2742 58.1374 96.2742 56.5483V40.11C96.2742 39.7812 96.2194 39.562 96.055 39.3428C95.8907 39.1785 95.6715 39.0689 95.4523 39.1237H93.1509V37.8086H100.767V39.1237H98.9044H98.7948C98.5208 39.1237 98.3564 39.2333 98.192 39.3976C98.0276 39.562 97.9728 39.7812 97.9728 40.0552V57.0415C97.9728 58.8497 97.5345 60.4387 96.603 61.8634C95.6715 63.2881 94.466 64.3839 92.877 65.2059C91.2879 66.0278 89.4797 66.4113 87.4523 66.4113C83.6167 66.4113 80.6578 65.5894 78.6304 63.8908C76.603 62.1922 75.5619 59.7812 75.5619 56.5483V40.11C75.5619 39.836 75.4523 39.562 75.2879 39.3976C75.1235 39.1785 74.9043 39.1237 74.6304 39.1237H72.877V37.8086Z" fill="#1A1846"/>
<path d="M104.987 56.3828C105.699 62.1911 108.603 65.0952 113.644 65.0952C115.233 65.0952 116.439 64.602 117.37 63.5609C118.302 62.5198 118.795 61.15 118.795 59.4513C118.795 58.2459 118.356 57.15 117.534 56.2185C116.713 55.287 115.562 54.5198 114.137 53.9719L109.315 52.0541C107.617 51.3417 106.302 50.4102 105.425 49.2596C104.548 48.1089 104.11 46.739 104.11 45.15C104.11 43.7253 104.439 42.4102 105.096 41.2596C105.754 40.0541 106.74 39.1226 108.055 38.4102C109.37 37.6979 110.959 37.3691 112.822 37.3691C113.808 37.3691 114.685 37.4787 115.397 37.6431C116.11 37.8075 116.822 38.0267 117.48 38.2459C118.192 38.465 118.63 38.6294 118.904 38.739C119.397 38.9034 119.836 39.013 120.165 39.013C120.713 39.013 121.206 38.9582 121.534 38.8486V45.4787H120.439C120.439 43.4513 119.781 41.7527 118.411 40.4924C117.096 39.2322 115.397 38.5746 113.37 38.5746C111.726 38.5746 110.411 39.013 109.425 39.9445C108.439 40.8212 107.891 42.0815 107.891 43.6705C107.891 44.7116 108.274 45.6431 108.987 46.465C109.699 47.287 110.685 47.9445 111.945 48.4924L116.274 50.2459C118.685 51.2322 120.384 52.2733 121.37 53.4787C122.411 54.6294 122.904 56.1637 122.904 58.0267C122.904 59.6705 122.521 61.0952 121.699 62.4102C120.877 63.6705 119.836 64.6568 118.466 65.3691C117.096 66.0815 115.617 66.4102 114.028 66.4102C113.041 66.4102 112.219 66.3554 111.507 66.3007C110.795 66.2459 110.028 66.0815 109.206 65.8075C107.562 65.3144 106.302 65.0952 105.48 65.0952C105.206 65.0952 104.877 65.15 104.603 65.2048C104.274 65.2596 104.055 65.3144 103.891 65.3691V56.4376H104.987V56.3828Z" fill="#1A1846"/>
<path d="M154.083 64.7118V65.9721H141.589V64.7118H143.891C144.822 64.8214 145.315 64.4378 145.315 63.5611C145.315 63.0132 145.151 62.4104 144.822 61.6981L142.521 56.1091H131.562L129.37 61.3694C128.932 62.3557 128.713 63.1228 128.713 63.7255C128.713 64.3831 129.041 64.657 129.754 64.6022H132V65.8625H123.836V64.6022H125.261C125.863 64.6022 126.411 64.3283 126.795 63.7255C127.288 63.0132 127.726 62.1365 128.22 60.9858L138.083 37.2598H139.288L149.261 61.0406C149.699 62.1913 150.137 63.068 150.63 63.7255C151.069 64.2735 151.617 64.5474 152.274 64.5474H154.083V64.7118ZM132.11 54.8488H141.973L137.041 42.9584L132.11 54.8488Z" fill="#1A1846"/>
<path d="M195.452 64.7127V65.973H185.096V64.7127H187.397C188 64.7127 188.329 64.3839 188.329 63.6716V41.4798L177.918 64.6579H175.178L163.836 41.0963V63.6168C163.836 64.3291 164.11 64.6579 164.712 64.6579H167.014V65.9182H159.452V64.6579H161.315C161.918 64.6579 162.247 64.3291 162.247 63.6168V39.3976C162.247 39.1785 162.082 39.0689 161.754 39.1237H159.781V37.8086H167.069L178.027 60.6031L188.384 37.8086H195.233V39.1237H193.644H193.534C193.26 39.1237 193.096 39.2333 192.932 39.3976C192.767 39.562 192.712 39.7812 192.712 40.0552V63.6168C192.712 64.3291 193.041 64.6579 193.644 64.6579H195.452V64.7127Z" fill="#F16B64"/>
<path d="M217.918 64.713V65.9733H211.507V62.4117C210.795 63.7815 209.918 64.713 208.822 65.3158C207.726 65.9185 206.466 66.1925 204.932 66.1925C202.959 66.1925 201.425 65.7541 200.439 64.8226C199.397 63.9459 198.904 62.576 198.904 60.8226C198.904 58.4117 199.891 56.6034 201.918 55.4528C203.945 54.3021 207.123 53.7541 211.452 53.7541V51.0144C211.452 49.5349 211.123 48.4938 210.411 47.8363C209.699 47.2336 208.603 46.9048 207.069 46.9048C204.658 46.9048 203.507 47.5623 203.507 48.8774C203.507 49.1514 203.562 49.4254 203.726 49.7541C203.891 50.0829 203.945 50.4117 203.945 50.6856C203.945 51.2336 203.781 51.6171 203.452 51.8911C203.123 52.1651 202.685 52.2747 202.137 52.2747C201.48 52.2747 200.986 52.0555 200.603 51.6719C200.219 51.2884 200.055 50.7404 200.055 50.0829C200.055 48.7678 200.767 47.6719 202.137 46.85C203.507 46.0281 205.37 45.6445 207.726 45.6445C212.986 45.6445 215.617 47.8363 215.617 52.2747V63.8911C215.617 64.4939 215.836 64.6582 216.219 64.6582H217.918V64.713ZM209.863 62.7952C210.849 61.6445 211.397 60.1651 211.452 58.3569V55.124C208.493 55.124 206.356 55.5623 205.096 56.4391C203.781 57.3158 203.178 58.6856 203.178 60.5486C203.178 61.8637 203.452 62.85 204 63.5623C204.548 64.2199 205.315 64.5486 206.356 64.5486C207.726 64.4939 208.932 63.9459 209.863 62.7952Z" fill="#F16B64"/>
<path d="M286.85 64.713V65.9733H280.439V62.4117C279.726 63.7815 278.85 64.713 277.754 65.3158C276.658 65.9185 275.398 66.1925 273.863 66.1925C271.891 66.1925 270.356 65.7541 269.37 64.8226C268.329 63.9459 267.836 62.576 267.836 60.8226C267.836 58.4117 268.822 56.6034 270.85 55.4528C272.877 54.3021 276.055 53.7541 280.384 53.7541V51.0144C280.384 49.5349 280.055 48.4938 279.343 47.8363C278.63 47.2336 277.535 46.9048 276 46.9048C273.589 46.9048 272.439 47.5623 272.439 48.8774C272.439 49.1514 272.493 49.4254 272.658 49.7541C272.822 50.0829 272.877 50.4117 272.877 50.6856C272.877 51.2336 272.713 51.6171 272.384 51.8911C272.055 52.1651 271.617 52.2747 271.069 52.2747C270.411 52.2747 269.918 52.0555 269.535 51.6719C269.151 51.2884 268.987 50.7404 268.987 50.0829C268.987 48.7678 269.699 47.6719 271.069 46.85C272.439 46.0281 274.302 45.6445 276.658 45.6445C281.918 45.6445 284.548 47.8363 284.548 52.2747V63.8911C284.548 64.4939 284.767 64.6582 285.151 64.6582H286.85V64.713ZM278.85 62.7952C279.836 61.6445 280.384 60.1651 280.439 58.3569V55.124C277.48 55.124 275.343 55.5623 274.083 56.4391C272.767 57.3158 272.165 58.6856 272.165 60.5486C272.165 61.8637 272.439 62.85 272.987 63.5623C273.535 64.2199 274.302 64.5486 275.343 64.5486C276.713 64.4939 277.863 63.9459 278.85 62.7952Z" fill="#F16B64"/>
<path d="M235.123 46.7403C235.781 47.4526 236.165 48.3294 236.165 49.3705C236.165 50.0828 236 50.6307 235.617 51.0143C235.233 51.3978 234.795 51.5622 234.192 51.5622C233.754 51.5622 233.37 51.4526 232.986 51.2335C232.603 51.0143 232.438 50.6307 232.438 50.1376C232.438 49.8636 232.493 49.48 232.603 49.0417C232.712 48.6033 232.767 48.2746 232.767 48.0006C232.767 47.7266 232.658 47.5074 232.493 47.3431C232.329 47.1239 232.055 47.0143 231.671 47.0143C230.685 47.0143 229.863 47.4526 229.151 48.3842C228.438 49.3157 227.836 50.4663 227.452 51.8362C227.069 53.2061 226.795 54.5211 226.74 55.7814V63.9458C226.74 64.5485 226.959 64.7129 227.343 64.7129H230.247V65.9732H220.603V64.7129H222.137C222.521 64.7129 222.74 64.5485 222.74 63.9458V48.2198C222.74 47.617 222.521 47.2883 222.137 47.2883H220.438V46.1376H226.795V50.6307C227.507 48.8773 228.329 47.617 229.206 46.8499C230.082 46.0828 231.123 45.6992 232.274 45.6992C233.48 45.6992 234.466 46.028 235.123 46.7403Z" fill="#F16B64"/>
<path d="M253.096 46.7403C253.754 47.4526 254.137 48.3294 254.137 49.3705C254.137 50.0828 253.973 50.6307 253.589 51.0143C253.206 51.3978 252.767 51.5622 252.165 51.5622C251.726 51.5622 251.343 51.4526 250.959 51.2335C250.576 51.0143 250.411 50.6307 250.411 50.1376C250.411 49.8636 250.466 49.48 250.576 49.0417C250.685 48.6033 250.74 48.2746 250.74 48.0006C250.74 47.7266 250.63 47.5074 250.466 47.3431C250.302 47.1239 250.028 47.0143 249.644 47.0143C248.658 47.0143 247.836 47.4526 247.124 48.3842C246.411 49.3157 245.808 50.4663 245.425 51.8362C245.041 53.2061 244.767 54.5211 244.713 55.7814V63.9458C244.713 64.5485 244.932 64.7129 245.315 64.7129H248.219V65.9732H238.576V64.7129H240.11C240.493 64.7129 240.713 64.5485 240.713 63.9458V48.2198C240.713 47.617 240.493 47.2883 240.11 47.2883H238.356V46.1376H244.713V50.6307C245.425 48.8773 246.247 47.617 247.124 46.8499C248 46.0828 249.041 45.6992 250.192 45.6992C251.452 45.6992 252.384 46.028 253.096 46.7403Z" fill="#F16B64"/>
<path d="M262.74 63.9449C262.74 64.5477 262.959 64.8217 263.343 64.8217L265.041 64.7121V65.9175H256.329V64.7121L258.083 64.8217C258.466 64.8217 258.685 64.5477 258.685 63.9449V48.2189C258.685 47.671 258.521 47.397 258.137 47.2874L256.384 47.2326V46.1367H262.74V63.9449Z" fill="#F16B64"/>
<path d="M304.602 45.4245C303.945 45.7533 303.397 46.1916 302.959 46.6848C305.26 47.8355 306.465 49.8629 306.465 52.767C306.465 54.8492 305.753 56.5478 304.274 57.8081C302.794 59.1231 300.822 59.7807 298.411 59.7807C297.096 59.7807 295.89 59.5615 294.739 59.0683C294.739 59.0683 293.534 59.4519 293.15 60.493C292.712 61.5889 294.027 62.2464 295.781 62.2464H302.027C304.328 62.2464 306.082 62.7396 307.287 63.7807C308.493 64.767 309.041 66.4656 309.041 68.8218C309.041 70.4108 308.602 71.8355 307.671 73.0409C306.739 74.2464 305.424 75.2327 303.726 75.8902C302.027 76.5478 300.054 76.8765 297.808 76.8765C295.068 76.8765 292.931 76.3286 291.397 75.2875C289.917 74.1916 289.15 72.6574 289.15 70.63C289.15 69.3697 289.479 68.3286 290.191 67.3971C290.904 66.5204 291.945 65.7533 293.37 65.0957C291.068 64.6574 289.863 63.6163 289.863 61.9724C289.863 61.3697 290.246 60.7122 290.52 60.219C291.123 59.2875 293.37 58.4108 293.37 58.4108C292.438 57.8081 291.671 57.0409 291.123 56.0546C290.575 55.1231 290.301 53.9724 290.301 52.7122C290.301 50.63 291.068 48.8766 292.548 47.6163C294.027 46.3012 295.945 45.6437 298.301 45.6437C299.616 45.6437 300.822 45.8081 301.863 46.1916C302.63 45.0957 303.616 44.1642 304.767 43.3423C305.917 42.5204 306.794 42.082 307.452 42.082C308.219 42.082 308.822 42.3012 309.15 42.7396C309.479 43.1779 309.643 43.6163 309.643 44.1642C309.643 44.5478 309.479 44.9861 309.205 45.3697C308.931 45.7533 308.548 45.9176 308.109 45.9176C307.726 45.9176 307.452 45.8629 307.233 45.7533C307.013 45.6437 306.849 45.4793 306.63 45.2053C306.411 44.9313 306.191 44.8218 305.972 44.8218C305.753 44.8766 305.26 45.0409 304.602 45.4245ZM296.602 65.3149C295.671 65.3149 294.849 65.5889 294.082 66.082C293.315 66.5752 292.657 67.2327 292.219 68.0546C291.781 68.8765 291.561 69.6985 291.561 70.5204C291.561 72.0546 292.109 73.3149 293.15 74.2464C294.191 75.1779 295.78 75.6711 297.863 75.6711C300.493 75.6711 302.465 75.0683 303.89 73.8629C305.315 72.6574 306.027 71.1231 306.027 69.1505C306.027 67.8354 305.644 66.9039 304.931 66.3012C304.219 65.6985 303.013 65.3697 301.424 65.3697H296.602V65.3149ZM301.424 57.3697C301.972 56.493 302.246 54.9587 302.246 52.767C302.246 50.6848 301.972 49.1505 301.424 48.2738C300.876 47.3971 299.835 46.9587 298.411 46.9587C296.986 46.9587 295.945 47.3971 295.397 48.219C294.849 49.0409 294.575 50.5752 294.575 52.767C294.575 54.3012 294.685 55.5067 294.904 56.3286C295.123 57.2053 295.507 57.8081 296.054 58.1368C296.602 58.5204 297.37 58.6848 298.411 58.6848C299.835 58.6848 300.876 58.2464 301.424 57.3697Z" fill="#F16B64"/>
<path d="M326.411 48.0541C327.946 49.6431 328.713 51.8349 328.767 54.5747V55.9445H315.178C315.178 58.7938 315.672 60.9856 316.658 62.5199C317.644 64.0541 319.124 64.8212 321.096 64.876C322.685 64.876 324 64.4925 325.096 63.6705C326.192 62.9034 326.959 61.9171 327.452 60.7664L328.548 61.5884C327.945 63.1226 326.85 64.2733 325.37 65.15C323.891 66.0267 322.247 66.4651 320.439 66.4651C314.082 66.4651 310.85 63.013 310.85 56.1637C310.85 52.7116 311.672 50.1363 313.261 48.3829C314.85 46.6295 317.206 45.7527 320.329 45.7527C322.85 45.6979 324.877 46.4651 326.411 48.0541ZM316.493 49.15C315.672 50.5747 315.233 52.4925 315.233 54.7938H323.836C324.165 54.7938 324.384 54.6842 324.548 54.4651C324.713 54.2459 324.767 53.8623 324.767 53.2596C324.767 51.1226 324.439 49.5336 323.726 48.5473C323.069 47.5062 321.918 47.013 320.329 47.013C318.63 46.9582 317.315 47.6705 316.493 49.15Z" fill="#F16B64"/>
<path d="M263.836 39.3426V38.9042C262.192 38.9042 260.877 37.5891 260.877 35.9453H260.438C260.438 37.5891 259.123 38.9042 257.479 38.9042V39.3426C259.123 39.3426 260.438 40.6576 260.438 42.3015H260.877C260.877 40.7124 262.192 39.3426 263.836 39.3426Z" fill="#F16B64"/>
<path d="M62.0274 44.8771C62.0274 33.2607 52.5479 23.7812 40.9315 23.7812C38.9041 23.7812 36.9315 24.11 35.0685 24.6032C33.6438 25.0415 32.274 25.5895 31.0137 26.247C28.0548 24.658 24.6575 23.7812 21.0959 23.7812C9.47945 23.7812 0 33.2607 0 44.8771C0 44.9319 0 44.9319 0 44.9319C0 45.973 0.109589 46.9593 0.273973 47.9456C2.84931 67.6169 28.8219 79.0141 30.0274 79.5073L31.0685 79.9456L32.1096 79.5073C33.2603 79.0141 59.2329 67.6169 61.8082 48.0004C61.9726 47.0141 62.0274 45.973 62.0274 44.8771ZM5.31507 44.8771C5.31507 34.247 12.3836 25.5347 21.0959 25.5347C23.7808 25.5347 26.3014 26.3566 28.5479 27.836C29.4247 28.4388 30.2466 29.0963 31.0137 29.8634C34.5753 33.4251 36.8767 38.7949 36.8767 44.8771C36.8767 49.4799 35.5616 53.7538 33.3151 57.0963C34.2466 58.0278 35.2329 58.8497 36.3288 59.4525C39.9452 55.6717 42.1918 50.5758 42.1918 44.8771C42.1918 37.8634 38.7397 31.6717 33.4795 27.836C34.5753 27.1237 35.7808 26.521 37.0411 26.1374C38.3014 25.7539 39.5616 25.5347 40.9315 25.5347C49.6438 25.5347 56.7123 34.1922 56.7123 44.8771C56.7123 45.8634 56.6027 46.7949 56.5479 47.7264C55.3973 57.0415 48.8767 64.2196 40.9863 64.2196C38.3014 64.2196 35.7808 63.3977 33.5342 61.9182C32.6575 61.3155 31.8356 60.658 31.0685 59.8908C27.4521 56.3292 25.2055 50.9593 25.2055 44.8771C25.2055 40.2196 26.5205 36.0004 28.7671 32.658C27.8356 31.7265 26.8493 30.8497 25.7534 30.3018C22.137 34.0826 19.8904 39.2333 19.8904 44.8771C19.8904 51.8908 23.3425 58.0826 28.6027 61.9182C27.5068 62.6306 26.3014 63.2333 25.0411 63.6169C23.7808 64.0004 22.5205 64.2196 21.1507 64.2196C13.1507 64.2196 6.63014 57.0415 5.47945 47.6717C5.36986 46.7949 5.31507 45.8634 5.31507 44.9319C5.31507 44.9319 5.31507 44.9319 5.31507 44.8771ZM31.0137 76.8223C28.1644 75.4525 20.0548 71.4525 13.6986 64.658C16 65.5347 18.4658 66.0278 21.0411 66.0278C23.0685 66.0278 25.0411 65.699 26.9041 65.2059C28.3288 64.7675 29.6986 64.2196 30.9589 63.5621C33.9178 65.1511 37.3151 66.0278 40.8767 66.0278C43.4521 66.0278 45.9178 65.5347 48.2192 64.658C41.9726 71.4525 33.863 75.4525 31.0137 76.8223Z" fill="#F16B64"/>
<path d="M31.0137 10.3014L26.6849 13.3151L28.2192 8.27397L24 5.09589L29.3151 4.9863L31.0137 0L32.7671 4.9863L38.0274 5.09589L33.8082 8.27397L35.3425 13.3151L31.0137 10.3014Z" fill="#1A1846"/>
<path d="M11.7813 15.3971L7.45251 18.4108L8.98676 13.3697L4.76758 10.1916L10.0279 10.082L11.7813 5.0957L13.4799 10.082L18.795 10.1916L14.5758 13.3697L16.11 18.4108L11.7813 15.3971Z" fill="#1A1846"/>
<path d="M50.3018 15.3971L45.973 18.4108L47.5073 13.3697L43.2881 10.1916L48.5484 10.082L50.3018 5.0957L52.0004 10.082L57.2607 10.1916L53.0963 13.3697L54.6306 18.4108L50.3018 15.3971Z" fill="#1A1846"/>
</g>
<defs>
<clipPath id="clip0_671_253">
<rect width="328.767" height="80" fill="white"/>
</clipPath>
</defs>
</svg>
