<svg width="264" height="64" viewBox="0 0 264 64" fill="none" xmlns="http://www.w3.org/2000/svg">
<path d="M58.3018 30.2461H66.5429V31.2981H64.7018H64.6141C64.3949 31.2981 64.2634 31.3858 64.1319 31.5173C64.0004 31.6488 63.9566 31.8242 63.9566 32.0434V45.2379C63.9566 47.342 64.5264 49.0077 65.71 50.1913C66.8935 51.3749 68.5155 51.9447 70.6196 51.9447C71.847 51.9447 72.899 51.6379 73.9072 51.068C74.8716 50.4982 75.6607 49.7091 76.1867 48.6571C76.7566 47.6488 77.0196 46.5091 77.0196 45.2379V32.0872C77.0196 31.8242 76.9757 31.6488 76.8442 31.4735C76.7127 31.342 76.5374 31.2543 76.362 31.2981H74.5209V30.2461H80.6141V31.2981H79.1237H79.036C78.8168 31.2981 78.6853 31.3858 78.5538 31.5173C78.4223 31.6488 78.3785 31.8242 78.3785 32.0434V45.6324C78.3785 47.079 78.0278 48.3502 77.2826 49.4899C76.5374 50.6297 75.573 51.5064 74.3018 52.1639C73.0305 52.8214 71.584 53.1283 69.962 53.1283C66.8935 53.1283 64.5264 52.4708 62.9045 51.1119C61.2826 49.7529 60.4497 47.8242 60.4497 45.2379V32.0872C60.4497 31.868 60.362 31.6488 60.2305 31.5173C60.099 31.342 59.9237 31.2981 59.7045 31.2981H58.3018V30.2461Z" fill="white"/>
<path d="M83.989 45.1074C84.5589 49.754 86.8822 52.0773 90.915 52.0773C92.1863 52.0773 93.1507 51.6828 93.8959 50.8499C94.6411 50.017 95.0356 48.9211 95.0356 47.5622C95.0356 46.5979 94.6849 45.7211 94.0274 44.9759C93.3698 44.2307 92.4493 43.617 91.3096 43.1787L87.452 41.6444C86.0931 41.0746 85.0411 40.3294 84.3397 39.4088C83.6383 38.4883 83.2876 37.3924 83.2876 36.1211C83.2876 34.9814 83.5507 33.9294 84.0767 33.0088C84.6027 32.0444 85.3918 31.2992 86.4438 30.7294C87.4959 30.1595 88.7671 29.8965 90.2575 29.8965C91.0465 29.8965 91.7479 29.9842 92.3178 30.1157C92.8876 30.2472 93.4575 30.4225 93.9835 30.5979C94.5534 30.7732 94.9041 30.9047 95.1233 30.9924C95.5178 31.1239 95.8685 31.2116 96.1315 31.2116C96.5698 31.2116 96.9644 31.1677 97.2274 31.08V36.3842H96.3507C96.3507 34.7622 95.8246 33.4033 94.7287 32.3951C93.6767 31.3869 92.3178 30.8609 90.6959 30.8609C89.3808 30.8609 88.3287 31.2116 87.5397 31.9568C86.7507 32.6581 86.3123 33.6663 86.3123 34.9376C86.3123 35.7705 86.6191 36.5157 87.189 37.1732C87.7589 37.8307 88.5479 38.3568 89.5561 38.7951L93.0192 40.1979C94.9479 40.9869 96.3068 41.8198 97.0959 42.7842C97.9287 43.7047 98.3233 44.9321 98.3233 46.4225C98.3233 47.7376 98.0164 48.8773 97.3589 49.9294C96.7013 50.9376 95.8685 51.7266 94.7726 52.2965C93.6767 52.8664 92.4931 53.1294 91.2219 53.1294C90.4329 53.1294 89.7753 53.0855 89.2055 53.0417C88.6356 52.9979 88.0219 52.8664 87.3644 52.6472C86.0493 52.2527 85.0411 52.0773 84.3835 52.0773C84.1644 52.0773 83.9013 52.1211 83.6822 52.165C83.4191 52.2088 83.2438 52.2527 83.1123 52.2965V45.1513H83.989V45.1074Z" fill="white"/>
<path d="M123.267 51.7702V52.7785H113.272V51.7702H115.113C115.858 51.8579 116.253 51.5511 116.253 50.8497C116.253 50.4113 116.121 49.9291 115.858 49.3593L114.017 44.888H105.25L103.497 49.0963C103.146 49.8853 102.971 50.499 102.971 50.9812C102.971 51.5072 103.234 51.7264 103.804 51.6826H105.601V52.6908H99.0693V51.6826H100.209C100.691 51.6826 101.13 51.4634 101.436 50.9812C101.831 50.4113 102.182 49.71 102.576 48.7894L110.467 29.8086H111.431L119.409 48.8333C119.76 49.7538 120.11 50.4552 120.505 50.9812C120.856 51.4195 121.294 51.6387 121.82 51.6387H123.267V51.7702ZM105.689 43.8798H113.579L109.634 34.3675L105.689 43.8798Z" fill="white"/>
<path d="M156.362 51.7694V52.7776H148.077V51.7694H149.918C150.4 51.7694 150.663 51.5064 150.663 50.9365V33.1831L142.334 51.7255H140.142L131.068 32.8762V50.8927C131.068 51.4625 131.288 51.7255 131.77 51.7255H133.611V52.7338H127.562V51.7255H129.052C129.534 51.7255 129.797 51.4625 129.797 50.8927V31.5173C129.797 31.342 129.666 31.2543 129.403 31.2981H127.825V30.2461H133.655L142.422 48.4817L150.707 30.2461H156.186V31.2981H154.915H154.827C154.608 31.2981 154.477 31.3858 154.345 31.5173C154.214 31.6488 154.17 31.8242 154.17 32.0434V50.8927C154.17 51.4625 154.433 51.7255 154.915 51.7255H156.362V51.7694Z" fill="#F16B64"/>
<path d="M174.334 51.7704V52.7786H169.205V49.9293C168.635 51.0252 167.934 51.7704 167.057 52.2526C166.181 52.7348 165.172 52.954 163.945 52.954C162.367 52.954 161.139 52.6033 160.35 51.8581C159.518 51.1567 159.123 50.0608 159.123 48.6581C159.123 46.7293 159.912 45.2827 161.534 44.3622C163.156 43.4417 165.698 43.0033 169.161 43.0033V40.8115C169.161 39.628 168.898 38.7951 168.329 38.2691C167.759 37.7869 166.882 37.5238 165.655 37.5238C163.726 37.5238 162.805 38.0499 162.805 39.1019C162.805 39.3211 162.849 39.5403 162.981 39.8033C163.112 40.0663 163.156 40.3293 163.156 40.5485C163.156 40.9869 163.024 41.2937 162.761 41.5129C162.498 41.7321 162.148 41.8197 161.709 41.8197C161.183 41.8197 160.789 41.6444 160.482 41.3375C160.175 41.0307 160.044 40.5923 160.044 40.0663C160.044 39.0143 160.613 38.1375 161.709 37.48C162.805 36.8225 164.296 36.5156 166.181 36.5156C170.389 36.5156 172.493 38.269 172.493 41.8197V51.1129C172.493 51.5951 172.668 51.7266 172.975 51.7266H174.334V51.7704ZM167.89 50.2362C168.679 49.3156 169.118 48.1321 169.161 46.6855V44.0992C166.794 44.0992 165.085 44.4499 164.076 45.1512C163.024 45.8526 162.542 46.9485 162.542 48.4389C162.542 49.491 162.761 50.28 163.2 50.8499C163.638 51.3759 164.252 51.6389 165.085 51.6389C166.181 51.5951 167.145 51.1567 167.89 50.2362Z" fill="#F16B64"/>
<path d="M229.48 51.7704V52.7786H224.351V49.9293C223.781 51.0252 223.08 51.7704 222.203 52.2526C221.326 52.7348 220.318 52.954 219.09 52.954C217.512 52.954 216.285 52.6033 215.496 51.8581C214.663 51.1567 214.269 50.0608 214.269 48.6581C214.269 46.7293 215.058 45.2827 216.68 44.3622C218.301 43.4417 220.844 43.0033 224.307 43.0033V40.8115C224.307 39.628 224.044 38.7951 223.474 38.2691C222.904 37.7869 222.027 37.5238 220.8 37.5238C218.871 37.5238 217.951 38.0499 217.951 39.1019C217.951 39.3211 217.995 39.5403 218.126 39.8033C218.258 40.0663 218.301 40.3293 218.301 40.5485C218.301 40.9869 218.17 41.2937 217.907 41.5129C217.644 41.7321 217.293 41.8197 216.855 41.8197C216.329 41.8197 215.934 41.6444 215.627 41.3375C215.321 41.0307 215.189 40.5923 215.189 40.0663C215.189 39.0143 215.759 38.1375 216.855 37.48C217.951 36.8225 219.441 36.5156 221.326 36.5156C225.534 36.5156 227.638 38.269 227.638 41.8197V51.1129C227.638 51.5951 227.814 51.7266 228.121 51.7266H229.48V51.7704ZM223.08 50.2362C223.869 49.3156 224.307 48.1321 224.351 46.6855V44.0992C221.984 44.0992 220.274 44.4499 219.266 45.1512C218.214 45.8526 217.732 46.9485 217.732 48.4389C217.732 49.491 217.951 50.28 218.389 50.8499C218.827 51.3759 219.441 51.6389 220.274 51.6389C221.37 51.5951 222.29 51.1567 223.08 50.2362Z" fill="#F16B64"/>
<path d="M188.099 37.3915C188.625 37.9613 188.931 38.6627 188.931 39.4956C188.931 40.0654 188.8 40.5038 188.493 40.8106C188.186 41.1175 187.836 41.249 187.353 41.249C187.003 41.249 186.696 41.1613 186.389 40.986C186.082 40.8106 185.951 40.5038 185.951 40.1093C185.951 39.8901 185.994 39.5833 186.082 39.2326C186.17 38.8819 186.214 38.6189 186.214 38.3997C186.214 38.1805 186.126 38.0052 185.994 37.8737C185.863 37.6983 185.644 37.6106 185.337 37.6106C184.548 37.6106 183.89 37.9613 183.32 38.7065C182.751 39.4517 182.268 40.3723 181.962 41.4682C181.655 42.5641 181.436 43.6161 181.392 44.6243V51.1559C181.392 51.638 181.567 51.7696 181.874 51.7696H184.197V52.7778H176.482V51.7696H177.709C178.016 51.7696 178.192 51.638 178.192 51.1559V38.575C178.192 38.0928 178.016 37.8298 177.709 37.8298H176.351V36.9093H181.436V40.5038C182.005 39.1011 182.663 38.0928 183.364 37.4791C184.066 36.8654 184.899 36.5586 185.819 36.5586C186.783 36.5586 187.573 36.8216 188.099 37.3915Z" fill="#F16B64"/>
<path d="M202.476 37.3915C203.002 37.9613 203.309 38.6627 203.309 39.4956C203.309 40.0654 203.178 40.5038 202.871 40.8106C202.564 41.1175 202.213 41.249 201.731 41.249C201.38 41.249 201.074 41.1613 200.767 40.986C200.46 40.8106 200.328 40.5038 200.328 40.1093C200.328 39.8901 200.372 39.5833 200.46 39.2326C200.548 38.8819 200.591 38.6189 200.591 38.3997C200.591 38.1805 200.504 38.0052 200.372 37.8737C200.241 37.6983 200.022 37.6106 199.715 37.6106C198.926 37.6106 198.268 37.9613 197.698 38.7065C197.128 39.4517 196.646 40.3723 196.339 41.4682C196.033 42.5641 195.813 43.6161 195.77 44.6243V51.1559C195.77 51.638 195.945 51.7696 196.252 51.7696H198.575V52.7778H190.86V51.7696H192.087C192.394 51.7696 192.569 51.638 192.569 51.1559V38.575C192.569 38.0928 192.394 37.8298 192.087 37.8298H190.685V36.9093H195.77V40.5038C196.339 39.1011 196.997 38.0928 197.698 37.4791C198.4 36.8654 199.233 36.5586 200.153 36.5586C201.161 36.5586 201.906 36.8216 202.476 37.3915Z" fill="#F16B64"/>
<path d="M210.191 51.1567C210.191 51.6389 210.367 51.8581 210.673 51.8581L212.032 51.7704V52.7348H205.062V51.7704L206.465 51.8581C206.772 51.8581 206.947 51.6389 206.947 51.1567V38.5759C206.947 38.1376 206.816 37.9184 206.509 37.8307L205.106 37.7869V36.9102H210.191V51.1567Z" fill="#F16B64"/>
<path d="M243.682 36.34C243.156 36.603 242.718 36.9537 242.367 37.3482C244.208 38.2688 245.172 39.8907 245.172 42.214C245.172 43.8797 244.602 45.2386 243.419 46.2468C242.235 47.2989 240.657 47.8249 238.729 47.8249C237.676 47.8249 236.712 47.6496 235.792 47.2551C235.792 47.2551 234.827 47.5619 234.52 48.3948C234.17 49.2715 235.222 49.7975 236.624 49.7975H241.622C243.463 49.7975 244.866 50.192 245.83 51.0249C246.794 51.814 247.233 53.1729 247.233 55.0578C247.233 56.329 246.882 57.4688 246.137 58.4331C245.392 59.3975 244.339 60.1866 242.981 60.7126C241.622 61.2386 240.044 61.5016 238.246 61.5016C236.055 61.5016 234.345 61.0633 233.118 60.2304C231.934 59.3537 231.32 58.1263 231.32 56.5044C231.32 55.4961 231.583 54.6633 232.153 53.9181C232.723 53.2167 233.556 52.603 234.696 52.077C232.855 51.7263 231.89 50.8934 231.89 49.5783C231.89 49.0962 232.197 48.5701 232.416 48.1756C232.898 47.4304 234.696 46.729 234.696 46.729C233.95 46.2468 233.337 45.6331 232.898 44.8441C232.46 44.0989 232.241 43.1783 232.241 42.1701C232.241 40.5044 232.855 39.1016 234.038 38.0934C235.222 37.0414 236.756 36.5153 238.641 36.5153C239.693 36.5153 240.657 36.6468 241.49 36.9537C242.104 36.077 242.893 35.3318 243.813 34.6742C244.734 34.0167 245.435 33.666 245.961 33.666C246.575 33.666 247.057 33.8414 247.32 34.192C247.583 34.5427 247.715 34.8934 247.715 35.3318C247.715 35.6386 247.583 35.9893 247.364 36.2962C247.145 36.603 246.838 36.7345 246.487 36.7345C246.181 36.7345 245.961 36.6907 245.786 36.603C245.611 36.5153 245.479 36.3838 245.304 36.1646C245.129 35.9455 244.953 35.8578 244.778 35.8578C244.603 35.9016 244.208 36.0331 243.682 36.34ZM237.282 52.2523C236.537 52.2523 235.879 52.4715 235.266 52.866C234.652 53.2605 234.126 53.7866 233.775 54.4441C233.424 55.1016 233.249 55.7592 233.249 56.4167C233.249 57.6441 233.687 58.6523 234.52 59.3975C235.353 60.1427 236.624 60.5373 238.29 60.5373C240.394 60.5373 241.972 60.0551 243.112 59.0907C244.252 58.1263 244.822 56.8989 244.822 55.3208C244.822 54.2688 244.515 53.5235 243.945 53.0414C243.375 52.5592 242.411 52.2962 241.139 52.2962H237.282V52.2523ZM241.139 45.8961C241.578 45.1948 241.797 43.9674 241.797 42.214C241.797 40.5482 241.578 39.3208 241.139 38.6194C240.701 37.9181 239.868 37.5674 238.729 37.5674C237.589 37.5674 236.756 37.9181 236.318 38.5756C235.879 39.2331 235.66 40.4605 235.66 42.214C235.66 43.4414 235.748 44.4057 235.923 45.0633C236.098 45.7646 236.405 46.2468 236.844 46.5098C237.282 46.8167 237.896 46.9482 238.729 46.9482C239.868 46.9482 240.701 46.5975 241.139 45.8961Z" fill="#F16B64"/>
<path d="M261.129 38.4429C262.356 39.7141 262.97 41.4676 263.014 43.6593V44.7552H252.143C252.143 47.0347 252.537 48.7881 253.326 50.0155C254.115 51.2429 255.299 51.8566 256.877 51.9004C258.148 51.9004 259.2 51.5936 260.077 50.936C260.954 50.3223 261.567 49.5333 261.962 48.6128L262.839 49.2703C262.356 50.4977 261.48 51.4182 260.296 52.1196C259.113 52.821 257.797 53.1717 256.351 53.1717C251.266 53.1717 248.68 50.41 248.68 44.9306C248.68 42.1689 249.337 40.1087 250.608 38.7059C251.88 37.3032 253.765 36.6018 256.263 36.6018C258.28 36.558 259.902 37.1717 261.129 38.4429ZM253.195 39.3196C252.537 40.4593 252.187 41.9936 252.187 43.8347H259.069C259.332 43.8347 259.507 43.747 259.639 43.5717C259.77 43.3963 259.814 43.0895 259.814 42.6073C259.814 40.8977 259.551 39.6265 258.981 38.8374C258.455 38.0045 257.534 37.61 256.263 37.61C254.904 37.5662 253.852 38.136 253.195 39.3196Z" fill="#F16B64"/>
<path d="M211.068 31.4737V31.123C209.753 31.123 208.701 30.0709 208.701 28.7559H208.351C208.351 30.0709 207.298 31.123 205.983 31.123V31.4737C207.298 31.4737 208.351 32.5257 208.351 33.8408H208.701C208.701 32.5696 209.753 31.4737 211.068 31.4737Z" fill="#F16B64"/>
<path d="M49.6219 35.9021C49.6219 26.609 42.0384 19.0254 32.7452 19.0254C31.1233 19.0254 29.5452 19.2884 28.0548 19.6829C26.9151 20.0336 25.8192 20.472 24.811 20.998C22.4438 19.7268 19.726 19.0254 16.8767 19.0254C7.58356 19.0254 0 26.609 0 35.9021C0 35.9459 0 35.9459 0 35.9459C0 36.7788 0.0876712 37.5679 0.219178 38.3569C2.27945 54.0939 23.0575 63.2117 24.0219 63.6062L24.8548 63.9569L25.6877 63.6062C26.6082 63.2117 47.3863 54.0939 49.4466 38.4007C49.5781 37.6117 49.6219 36.7788 49.6219 35.9021ZM4.25206 35.9021C4.25206 27.398 9.90685 20.4281 16.8767 20.4281C19.0247 20.4281 21.0411 21.0857 22.8384 22.2692C23.5397 22.7514 24.1973 23.2774 24.811 23.8911C27.6603 26.7405 29.5014 31.0363 29.5014 35.9021C29.5014 39.5843 28.4493 43.0035 26.6521 45.6774C27.3973 46.4226 28.1863 47.0802 29.063 47.5624C31.9562 44.5377 33.7534 40.461 33.7534 35.9021C33.7534 30.2911 30.9918 25.3377 26.7836 22.2692C27.6603 21.6994 28.6247 21.2172 29.6329 20.9103C30.6411 20.6035 31.6493 20.4281 32.7452 20.4281C39.7151 20.4281 45.3699 27.3542 45.3699 35.9021C45.3699 36.6911 45.2822 37.4363 45.2384 38.1816C44.3178 45.6336 39.1014 51.3761 32.789 51.3761C30.6411 51.3761 28.6247 50.7185 26.8274 49.535C26.126 49.0528 25.4685 48.5268 24.8548 47.9131C21.9616 45.0637 20.1644 40.7679 20.1644 35.9021C20.1644 32.1761 21.2164 28.8007 23.0137 26.1268C22.2685 25.3816 21.4795 24.6802 20.6027 24.2418C17.7096 27.2665 15.9123 31.387 15.9123 35.9021C15.9123 41.5131 18.674 46.4665 22.8822 49.535C22.0055 50.1048 21.0411 50.587 20.0329 50.8939C19.0247 51.2007 18.0164 51.3761 16.9205 51.3761C10.5205 51.3761 5.30411 45.6336 4.38356 38.1377C4.29589 37.4363 4.25206 36.6911 4.25206 35.9459C4.25206 35.9459 4.25206 35.9459 4.25206 35.9021ZM24.811 61.4583C22.5315 60.3624 16.0438 57.1624 10.9589 51.7268C12.8 52.4281 14.7726 52.8226 16.8329 52.8226C18.4548 52.8226 20.0329 52.5596 21.5233 52.1651C22.663 51.8144 23.7589 51.3761 24.7671 50.85C27.1343 52.1213 29.8521 52.8226 32.7014 52.8226C34.7616 52.8226 36.7343 52.4281 38.5753 51.7268C33.5781 57.1624 27.0904 60.3624 24.811 61.4583Z" fill="#F16B64"/>
<path d="M24.8112 8.24109L21.3481 10.6521L22.5755 6.61918L19.2002 4.07671L23.4523 3.98904L24.8112 0L26.2139 3.98904L30.4221 4.07671L27.0468 6.61918L28.2742 10.6521L24.8112 8.24109Z" fill="white"/>
<path d="M9.42444 12.3173L5.96142 14.7282L7.18882 10.6954L3.81348 8.15288L8.0217 8.06521L9.42444 4.07617L10.7833 8.06521L15.0354 8.15288L11.6601 10.6954L12.8874 14.7282L9.42444 12.3173Z" fill="white"/>
<path d="M40.2408 12.3173L36.7778 14.7282L38.0052 10.6954L34.6299 8.15288L38.8381 8.06521L40.2408 4.07617L41.5997 8.06521L45.808 8.15288L42.4765 10.6954L43.7039 14.7282L40.2408 12.3173Z" fill="white"/>
</svg>
