<svg width="63" height="57" viewBox="0 0 63 57" fill="none" xmlns="http://www.w3.org/2000/svg">
<path d="M62.0274 21.8771C62.0274 10.2607 52.5479 0.78125 40.9315 0.78125C38.9041 0.78125 36.9315 1.11002 35.0685 1.60317C33.6438 2.04152 32.274 2.58947 31.0137 3.247C28.0548 1.65796 24.6575 0.78125 21.0959 0.78125C9.47945 0.78125 0 10.2607 0 21.8771C0 21.9319 0 21.9319 0 21.9319C0 22.973 0.109589 23.9593 0.273973 24.9456C2.84931 44.6169 28.8219 56.0141 30.0274 56.5073L31.0685 56.9456L32.1096 56.5073C33.2603 56.0141 59.2329 44.6169 61.8082 25.0004C61.9726 24.0141 62.0274 22.973 62.0274 21.8771ZM5.31507 21.8771C5.31507 11.247 12.3836 2.53467 21.0959 2.53467C23.7808 2.53467 26.3014 3.35659 28.5479 4.83604C29.4247 5.43878 30.2466 6.09632 31.0137 6.86344C34.5753 10.4251 36.8767 15.7949 36.8767 21.8771C36.8767 26.4799 35.5616 30.7538 33.3151 34.0963C34.2466 35.0278 35.2329 35.8497 36.3288 36.4525C39.9452 32.6717 42.1918 27.5758 42.1918 21.8771C42.1918 14.8634 38.7397 8.67166 33.4795 4.83604C34.5753 4.12371 35.7808 3.52097 37.0411 3.13741C38.3014 2.75385 39.5616 2.53467 40.9315 2.53467C49.6438 2.53467 56.7123 11.1922 56.7123 21.8771C56.7123 22.8634 56.6027 23.7949 56.5479 24.7264C55.3973 34.0415 48.8767 41.2196 40.9863 41.2196C38.3014 41.2196 35.7808 40.3977 33.5342 38.9182C32.6575 38.3155 31.8356 37.658 31.0685 36.8908C27.4521 33.3292 25.2055 27.9593 25.2055 21.8771C25.2055 17.2196 26.5205 13.0004 28.7671 9.65796C27.8356 8.72645 26.8493 7.84974 25.7534 7.3018C22.137 11.0826 19.8904 16.2333 19.8904 21.8771C19.8904 28.8908 23.3425 35.0826 28.6027 38.9182C27.5068 39.6306 26.3014 40.2333 25.0411 40.6169C23.7808 41.0004 22.5205 41.2196 21.1507 41.2196C13.1507 41.2196 6.63014 34.0415 5.47945 24.6717C5.36986 23.7949 5.31507 22.8634 5.31507 21.9319C5.31507 21.9319 5.31507 21.9319 5.31507 21.8771ZM31.0137 53.8223C28.1644 52.4525 20.0548 48.4525 13.6986 41.658C16 42.5347 18.4658 43.0278 21.0411 43.0278C23.0685 43.0278 25.0411 42.699 26.9041 42.2059C28.3288 41.7675 29.6986 41.2196 30.9589 40.5621C33.9178 42.1511 37.3151 43.0278 40.8767 43.0278C43.4521 43.0278 45.9178 42.5347 48.2192 41.658C41.9726 48.4525 33.863 52.4525 31.0137 53.8223Z" fill="#F16B64"/>
</svg>
