<svg width="32" height="32" viewBox="0 0 32 32" fill="none" xmlns="http://www.w3.org/2000/svg">
<g clip-path="url(#clip0_421_503)">
<path d="M22.0625 11.1051C22.6175 10.6877 23.3817 10.6877 23.9367 11.1051L24.5042 11.5318C24.7814 11.7403 25.1202 11.8503 25.467 11.8446L26.1769 11.833C26.8712 11.8215 27.4894 12.2707 27.6932 12.9346L27.9014 13.6134C28.0032 13.9449 28.2125 14.2331 28.4964 14.4324L29.0776 14.8402C29.6461 15.2391 29.8822 15.9658 29.6568 16.6227L29.4263 17.2942C29.3137 17.6223 29.3137 17.9785 29.4263 18.3065L29.6568 18.9781C29.8822 19.6349 29.6461 20.3617 29.0776 20.7606L28.4964 21.1684C28.2125 21.3676 28.0032 21.6558 27.9014 21.9874L27.6932 22.6662C27.4894 23.3301 26.8712 23.7793 26.1769 23.7678L25.467 23.7562C25.1202 23.7504 24.7814 23.8605 24.5042 24.069L23.9367 24.4957C23.3817 24.9131 22.6175 24.9131 22.0625 24.4957L21.495 24.069C21.2178 23.8605 20.879 23.7504 20.5323 23.7562L19.8224 23.7678C19.128 23.7793 18.5098 23.3301 18.3061 22.6662L18.0978 21.9874C17.9961 21.6558 17.7867 21.3676 17.5028 21.1684L16.9216 20.7606C16.3531 20.3617 16.117 19.6349 16.3424 18.9781L16.5729 18.3065C16.6855 17.9785 16.6855 17.6223 16.5729 17.2942L16.3424 16.6227C16.117 15.9658 16.3531 15.2391 16.9216 14.8402L17.5028 14.4324C17.7867 14.2331 17.9961 13.9449 18.0978 13.6134L18.3061 12.9346C18.5098 12.2707 19.128 11.8215 19.8224 11.833L20.5323 11.8446C20.879 11.8503 21.2178 11.7403 21.495 11.5318L22.0625 11.1051Z" stroke="#F16B64" stroke-width="1.5"/>
<path d="M17.6715 25.0757C17.8415 24.6979 17.673 24.2539 17.2953 24.084C16.9176 23.914 16.4736 24.0824 16.3036 24.4601L17.6715 25.0757ZM25.4384 24.3541C25.6405 23.9926 25.5112 23.5356 25.1496 23.3336C24.788 23.1315 24.3311 23.2608 24.129 23.6224L25.4384 24.3541ZM16.4923 25.8683L15.8084 25.5606L16.4923 25.8683ZM18.2355 28.034L18.081 27.3001L18.2355 28.034ZM16.3036 24.4601L15.8084 25.5606L17.1763 26.1761L17.6715 25.0757L16.3036 24.4601ZM18.39 28.7679L18.6169 28.7201L18.3078 27.2523L18.081 27.3001L18.39 28.7679ZM18.6463 28.7308L19.0451 29.2384L20.2246 28.3117L19.8257 27.8041L18.6463 28.7308ZM22.8767 28.9382L25.4384 24.3541L24.129 23.6224L21.5673 28.2065L22.8767 28.9382ZM19.0451 29.2384C20.0634 30.5345 22.0727 30.3771 22.8767 28.9382L21.5673 28.2065C21.2855 28.7107 20.5814 28.7659 20.2246 28.3117L19.0451 29.2384ZM18.6169 28.7201C18.6279 28.7178 18.6393 28.7219 18.6463 28.7308L19.8257 27.8041C19.466 27.3463 18.8776 27.1323 18.3078 27.2523L18.6169 28.7201ZM15.8084 25.5606C15.0332 27.2831 16.5415 29.157 18.39 28.7679L18.081 27.3001C17.4332 27.4364 16.9046 26.7798 17.1763 26.1761L15.8084 25.5606Z" fill="#F16B64"/>
<path d="M28.3537 25.6665C28.1808 25.2901 28.3459 24.8448 28.7223 24.6719C29.0987 24.4991 29.544 24.6641 29.7168 25.0405L28.3537 25.6665ZM22.176 27.8572C21.9773 27.4938 22.1109 27.0381 22.4743 26.8394C22.8378 26.6407 23.2935 26.7742 23.4922 27.1377L22.176 27.8572ZM26.3216 29.3761L26.9067 29.8453L26.3216 29.3761ZM26.748 28.8443L27.3331 29.3134L26.748 28.8443ZM27.8073 28.629L27.9588 27.8944L27.8073 28.629ZM29.7168 25.0405L30.2209 26.1383L28.8577 26.7642L28.3537 25.6665L29.7168 25.0405ZM27.6557 29.3635L27.3622 29.3029L27.6653 27.8339L27.9588 27.8944L27.6557 29.3635ZM27.3331 29.3134L26.9067 29.8453L25.7364 28.907L26.1628 28.3751L27.3331 29.3134ZM23.0788 29.5085L22.176 27.8572L23.4922 27.1377L24.395 28.789L23.0788 29.5085ZM26.9067 29.8453C25.876 31.1308 23.8693 30.9543 23.0788 29.5085L24.395 28.789C24.672 29.2956 25.3752 29.3575 25.7364 28.907L26.9067 29.8453ZM27.3622 29.3029C27.3513 29.3007 27.3401 29.3047 27.3331 29.3134L26.1628 28.3751C26.5222 27.9268 27.1026 27.7178 27.6653 27.8339L27.3622 29.3029ZM30.2209 26.1383C31.0107 27.8583 29.5094 29.7459 27.6557 29.3635L27.9588 27.8944C28.6084 28.0284 29.1345 27.367 28.8577 26.7642L30.2209 26.1383Z" fill="#F16B64"/>
<ellipse cx="23" cy="17.8008" rx="3" ry="3" stroke="#F16B64" stroke-width="1.5"/>
<path d="M24.2285 8.00598C24.2285 8.42019 24.5643 8.75598 24.9785 8.75598C25.3927 8.75598 25.7285 8.42019 25.7285 8.00598H24.2285ZM24.9785 0.599609H25.7285V-0.150391H24.9785V0.599609ZM1.2002 0.599609V-0.150391H0.450195V0.599609H1.2002ZM1.2002 30.42H0.450195V31.17H1.2002V30.42ZM12.1148 31.17C12.5291 31.17 12.8648 30.8342 12.8648 30.42C12.8648 30.0058 12.5291 29.67 12.1148 29.67V31.17ZM25.7285 8.00598V0.599609H24.2285V8.00598H25.7285ZM24.9785 -0.150391H1.2002V1.34961H24.9785V-0.150391ZM0.450195 0.599609V30.42H1.9502V0.599609H0.450195ZM1.2002 31.17H12.1148V29.67H1.2002V31.17Z" fill="#1A1846"/>
<path d="M9.9707 6.86719C9.55649 6.86719 9.2207 7.20297 9.2207 7.61719C9.2207 8.0314 9.55649 8.36719 9.9707 8.36719V6.86719ZM17.1822 8.36719C17.5964 8.36719 17.9322 8.0314 17.9322 7.61719C17.9322 7.20297 17.5964 6.86719 17.1822 6.86719V8.36719ZM9.9707 8.36719H17.1822V6.86719H9.9707V8.36719Z" fill="#1A1846"/>
<path d="M7.04688 10.959C6.63266 10.959 6.29688 11.2948 6.29688 11.709C6.29688 12.1232 6.63266 12.459 7.04688 12.459V10.959ZM15.2329 12.459C15.6471 12.459 15.9829 12.1232 15.9829 11.709C15.9829 11.2948 15.6471 10.959 15.2329 10.959V12.459ZM7.04688 12.459H15.2329V10.959H7.04688V12.459Z" fill="#1A1846"/>
<path d="M7.04688 14.8574C6.63266 14.8574 6.29688 15.1932 6.29688 15.6074C6.29688 16.0216 6.63266 16.3574 7.04688 16.3574V14.8574ZM13.2838 16.3574C13.698 16.3574 14.0338 16.0216 14.0338 15.6074C14.0338 15.1932 13.698 14.8574 13.2838 14.8574V16.3574ZM7.04688 16.3574H13.2838V14.8574H7.04688V16.3574Z" fill="#1A1846"/>
<path d="M7.04688 18.7559C6.63266 18.7559 6.29688 19.0916 6.29688 19.5059C6.29688 19.9201 6.63266 20.2559 7.04688 20.2559V18.7559ZM13.2838 20.2559C13.698 20.2559 14.0338 19.9201 14.0338 19.5059C14.0338 19.0916 13.698 18.7559 13.2838 18.7559V20.2559ZM7.04688 20.2559H13.2838V18.7559H7.04688V20.2559Z" fill="#1A1846"/>
<path d="M7.04688 22.6543C6.63266 22.6543 6.29688 22.9901 6.29688 23.4043C6.29688 23.8185 6.63266 24.1543 7.04688 24.1543V22.6543ZM13.2838 24.1543C13.698 24.1543 14.0338 23.8185 14.0338 23.4043C14.0338 22.9901 13.698 22.6543 13.2838 22.6543V24.1543ZM7.04688 24.1543H13.2838V22.6543H7.04688V24.1543Z" fill="#1A1846"/>
</g>
<defs>
<clipPath id="clip0_421_503">
<rect width="32" height="32" fill="white"/>
</clipPath>
</defs>
</svg>
