<svg width="80" height="80" viewBox="0 0 80 80" fill="none" xmlns="http://www.w3.org/2000/svg">
<g clip-path="url(#clip0_423_254)">
<path d="M56.5629 26.7047C57.1179 26.2873 57.8821 26.2873 58.4371 26.7047L61.903 29.311C62.1802 29.5194 62.519 29.6295 62.8658 29.6238L67.2017 29.5525C67.896 29.541 68.5143 29.9902 68.718 30.6541L69.99 34.7998C70.0917 35.1314 70.3011 35.4196 70.585 35.6188L74.1347 38.1097C74.7032 38.5086 74.9394 39.2354 74.7139 39.8922L73.3062 43.9938C73.1936 44.3219 73.1936 44.6781 73.3062 45.0062L74.7139 49.1078C74.9394 49.7646 74.7032 50.4914 74.1347 50.8903L70.585 53.3812C70.3011 53.5804 70.0917 53.8686 69.99 54.2002L68.718 58.3459C68.5143 59.0098 67.896 59.4589 67.2017 59.4475L62.8658 59.3762C62.519 59.3705 62.1802 59.4806 61.903 59.689L58.4371 62.2953C57.8821 62.7127 57.1179 62.7127 56.5629 62.2953L53.097 59.689C52.8198 59.4806 52.481 59.3705 52.1342 59.3762L47.7983 59.4475C47.104 59.4589 46.4857 59.0098 46.282 58.3459L45.01 54.2002C44.9083 53.8686 44.6989 53.5804 44.415 53.3812L40.8652 50.8903C40.2968 50.4914 40.0606 49.7646 40.2861 49.1078L41.6938 45.0062C41.8064 44.6781 41.8064 44.3219 41.6938 43.9938L40.2861 39.8922C40.0606 39.2354 40.2968 38.5086 40.8652 38.1097L44.415 35.6188C44.6989 35.4196 44.9083 35.1314 45.01 34.7998L46.282 30.6541C46.4857 29.9902 47.104 29.541 47.7983 29.5525L52.1342 29.6238C52.481 29.6295 52.8198 29.5194 53.097 29.311L56.5629 26.7047Z" stroke="white" stroke-width="4"/>
<path d="M42.4684 61.9217L39.342 68.8693C38.8186 70.0324 39.837 71.2977 41.0851 71.0349L46.8667 69.8177C47.1571 69.7566 47.457 69.8656 47.6404 70.0989L51.2551 74.6996C51.9427 75.5747 53.2994 75.4684 53.8423 74.4969L61.9588 59.9727" stroke="white" stroke-width="4" stroke-linecap="round"/>
<path d="M72.5886 63.3828L75.7776 70.3277C76.3109 71.4891 75.2972 72.7636 74.0455 72.5054L68.0839 71.2754C67.7971 71.2162 67.5013 71.3228 67.3181 71.5513L63.6101 76.1761C62.9142 77.0441 61.5592 76.9249 61.0255 75.9487L57.0858 68.7427" stroke="white" stroke-width="4" stroke-linecap="round"/>
<circle cx="57.5" cy="44.5" r="7.5" stroke="white" stroke-width="4"/>
<path d="M60.4458 20.0159C60.4458 21.1205 61.3413 22.0159 62.4458 22.0159C63.5504 22.0159 64.4458 21.1205 64.4458 20.0159H60.4458ZM62.4458 1.5H64.4458V-0.5H62.4458V1.5ZM3 1.5V-0.5H1V1.5H3ZM3 76.0509H1V78.0509H3V76.0509ZM30.2866 78.0509C31.3912 78.0509 32.2866 77.1555 32.2866 76.0509C32.2866 74.9464 31.3912 74.0509 30.2866 74.0509V78.0509ZM64.4458 20.0159V1.5H60.4458V20.0159H64.4458ZM62.4458 -0.5H3V3.5H62.4458V-0.5ZM1 1.5V76.0509H5V1.5H1ZM3 78.0509H30.2866V74.0509H3V78.0509Z" fill="white"/>
<path d="M24.9268 19.041H42.9554" stroke="white" stroke-width="4" stroke-linecap="round"/>
<path d="M17.6182 29.2734H38.0831" stroke="white" stroke-width="4" stroke-linecap="round"/>
<path d="M17.6182 39.0195H33.2105" stroke="white" stroke-width="4" stroke-linecap="round"/>
<path d="M17.6182 48.7656H33.2105" stroke="white" stroke-width="4" stroke-linecap="round"/>
<path d="M17.6182 58.5098H33.2105" stroke="white" stroke-width="4" stroke-linecap="round"/>
</g>
<defs>
<clipPath id="clip0_423_254">
<rect width="80" height="80" fill="white"/>
</clipPath>
</defs>
</svg>
