<svg width="41" height="32" viewBox="0 0 41 32" fill="none" xmlns="http://www.w3.org/2000/svg">
<path d="M4.1582 12V28H36.1582V12L20.1582 18L4.1582 12ZM4.1582 4V8L20.1582 14L36.1582 8V4H4.1582ZM4.1582 0H36.1582C37.2191 0 38.2365 0.421427 38.9866 1.17157C39.7368 1.92172 40.1582 2.93913 40.1582 4V28C40.1582 29.0609 39.7368 30.0783 38.9866 30.8284C38.2365 31.5786 37.2191 32 36.1582 32H4.1582C3.09734 32 2.07992 31.5786 1.32978 30.8284C0.57963 30.0783 0.158203 29.0609 0.158203 28V4C0.158203 2.93913 0.57963 1.92172 1.32978 1.17157C2.07992 0.421427 3.09734 0 4.1582 0Z" fill="#F16B64"/>
</svg>
