<svg width="41" height="40" viewBox="0 0 41 40" fill="none" xmlns="http://www.w3.org/2000/svg">
<path d="M38.1582 16H30.1582V12L21.1582 8.4V4H26.1582V0H19.1582V8.4L10.1582 12V16H2.1582C1.0582 16 0.158203 16.9 0.158203 18V40H16.1582V30H24.1582V40H40.1582V18C40.1582 16.9 39.2582 16 38.1582 16ZM12.1582 36H4.1582V30H12.1582V36ZM12.1582 26H4.1582V20H12.1582V26ZM20.1582 12C21.2582 12 22.1582 12.9 22.1582 14C22.1582 15.1 21.2582 16 20.1582 16C19.0582 16 18.1582 15.1 18.1582 14C18.1582 12.9 19.0582 12 20.1582 12ZM24.1582 26H16.1582V20H24.1582V26ZM36.1582 36H28.1582V30H36.1582V36ZM36.1582 26H28.1582V20H36.1582V26Z" fill="#E1645E"/>
</svg>
