<svg width="41" height="38" viewBox="0 0 41 38" fill="none" xmlns="http://www.w3.org/2000/svg">
<path d="M15.6579 37.7C19.2179 36.3 18.4379 32.44 16.6379 30C14.8579 27.5 12.3979 25.78 9.91787 24.12C8.14837 23.0047 6.56846 21.6138 5.23787 20C4.67787 19.34 3.53787 18.12 4.69787 17.88C5.87787 17.64 7.91787 18.8 8.95787 19.24C10.7779 20 12.5779 20.88 14.2579 21.92L16.2779 18.52C13.1579 16.46 9.15787 14.64 5.43787 14.1C3.31787 13.78 1.07787 14.22 0.357869 16.52C-0.282131 18.5 0.737869 20.5 1.89787 22.06C4.63787 25.72 8.89787 27.48 12.0779 30.64C12.7579 31.3 13.5779 32.08 13.9779 33C14.3979 33.88 14.2979 33.94 13.3579 33.94C10.8779 33.94 7.77787 32 5.75787 30.72L3.73787 34.12C6.79787 36 11.9179 38.94 15.6579 37.7ZM34.0779 10.66L22.7379 22H18.1579V17.42L29.4979 6.06L34.0779 10.66ZM40.8779 9.1C40.8579 9.7 40.2379 10.32 39.5979 10.94L34.5579 16L32.8179 14.26L38.0179 9.08L36.8379 7.9L35.4979 9.24L30.9179 4.66L35.2179 0.36C35.6979 -0.12 36.4779 -0.12 36.9379 0.36L39.7979 3.22C40.2779 3.66 40.2779 4.46 39.7979 4.94C39.3779 5.36 38.9779 5.76 38.9779 6.16C38.9379 6.56 39.3379 7 39.7379 7.34C40.3179 7.94 40.8979 8.5 40.8779 9.1Z" fill="#F16B64"/>
</svg>
