<svg width="80" height="80" viewBox="0 0 80 80" fill="none" xmlns="http://www.w3.org/2000/svg">
<g clip-path="url(#clip0_433_1557)">
<path d="M56.6667 21.2819C56.6667 28.8652 46.5139 42.3791 42.0556 47.8236C40.9861 49.2819 39.0139 49.2819 37.9444 47.8236C33.4861 42.3791 23.3333 28.8652 23.3333 21.2819C23.3333 12.0777 30.7917 4.61523 40 4.61523C49.2083 4.61523 56.6667 12.0777 56.6667 21.2819ZM40 25.7263C43.0694 25.7263 45.5556 23.2402 45.5556 20.1708C45.5556 17.1027 43.0694 14.6152 40 14.6152C36.9306 14.6152 34.4444 17.1027 34.4444 20.1708C34.4444 23.2402 36.9306 25.7263 40 25.7263ZM59.1111 29.5875C59.1806 29.4208 59.25 29.2541 59.3194 29.0736L75.4305 22.6291C77.625 21.7541 80 23.3652 80 25.7263V63.3375C80 64.6986 79.1667 65.9208 77.9028 66.4347L57.7778 74.4763V32.4486C58.2639 31.4902 58.7083 30.5458 59.1111 29.5875ZM20.8889 29.5875C21.2917 30.5458 21.7361 31.4902 22.2222 32.4486V67.3652L4.57083 74.4347C2.38194 75.1847 0 73.6986 0 71.3375V33.7263C0 32.3652 0.829861 31.018 2.09583 30.6291L19.1111 23.8236C19.4444 25.7958 20.125 27.7541 20.8889 29.5875ZM45.5278 50.6013C47.4583 48.3097 50.4861 44.3791 53.3333 40.0319V74.6569L26.6667 67.0319V40.0319C29.5139 44.3791 32.5417 48.3097 34.4722 50.6013C37.3194 54.2819 42.6806 54.2819 45.5278 50.6013Z" fill="#28BE94"/>
<path d="M56.6663 21.2819C56.6663 28.8652 46.5136 42.3791 42.0552 47.8236C40.9858 49.2819 39.0136 49.2819 37.9441 47.8236C33.4858 42.3791 23.333 28.8652 23.333 21.2819C23.333 12.0777 30.7913 4.61523 39.9997 4.61523C49.208 4.61523 56.6663 12.0777 56.6663 21.2819ZM39.9997 25.7263C43.0691 25.7263 45.5552 23.2402 45.5552 20.1708C45.5552 17.1027 43.0691 14.6152 39.9997 14.6152C36.9302 14.6152 34.4441 17.1027 34.4441 20.1708C34.4441 23.2402 36.9302 25.7263 39.9997 25.7263Z" fill="#F16B64"/>
</g>
<defs>
<clipPath id="clip0_433_1557">
<rect width="80" height="71.1111" fill="white" transform="translate(0 4.61523)"/>
</clipPath>
</defs>
</svg>
