<svg width="18" height="15" viewBox="0 0 18 15" fill="none" xmlns="http://www.w3.org/2000/svg">
<path d="M17.2524 0.471999C17.2524 0.471999 16.355 1.19537 15.0962 1.32559C15.0962 1.32559 13.1139 -0.888268 10.2778 1.03632C9.00467 1.93332 8.88868 3.82873 9.10572 4.50904C9.10572 4.50904 5.2569 4.8129 1.89982 0.876918C1.89982 0.876918 0.395087 3.48146 2.88399 5.5651C2.88399 5.5651 2.14812 5.68109 1.44906 5.10218C1.44906 5.10218 1.11846 7.79354 4.12827 8.54608C4.12827 8.54608 3.92581 8.89336 2.71035 8.54608C2.71035 8.54608 2.91281 10.7454 5.77781 11.0638C5.77781 11.0638 4.23002 12.6554 0.75 12.4529C0.75 12.4529 6.50118 16.7646 12.7233 11.5555C16.196 8.60373 16.0803 4.34964 16.0223 3.71309C16.0223 3.71309 17.3941 2.67128 17.75 2.00555C17.75 2.00555 16.6881 2.35283 15.8199 2.35283C15.8199 2.35283 16.9773 1.7451 17.2524 0.471999Z" fill="#252728" fill-opacity="0.7"/>
</svg>
