<svg width="72" height="72" viewBox="0 0 72 72" fill="none" xmlns="http://www.w3.org/2000/svg">
<g clip-path="url(#clip0_433_1452)">
<path d="M46.296 17.7317L47.1986 17.3985L46.6551 16.6045C45.5479 14.9872 44.4627 13.3854 43.3495 11.7421C42.9593 11.1662 42.5656 10.5851 42.1664 9.99652C42.2391 9.9309 42.3115 9.86557 42.3835 9.80052C43.3284 8.94755 44.2171 8.14519 45.175 7.42575L45.1823 7.42033L45.1893 7.41474C45.2345 7.37909 45.3597 7.31919 45.5983 7.28044C45.8161 7.24507 46.0613 7.23789 46.284 7.24706C49.071 7.50616 51.8366 7.79458 54.624 8.08526C55.2595 8.15154 55.8962 8.21794 56.5346 8.28414C57.4852 8.38995 57.9681 8.88163 58.4387 9.63629C58.5605 9.83171 58.6773 10.0385 58.8023 10.2619L58.8368 10.3237C58.9493 10.5251 59.0693 10.7398 59.1965 10.951C59.3569 11.2176 59.5373 11.4932 59.7503 11.7591C58.801 12.7157 57.8722 13.6508 56.9433 14.5861L56.9347 14.5947C55.8435 15.6933 54.752 16.7922 53.6273 17.9262L52.812 18.748L53.8953 19.1562C58.8778 21.0333 62.7377 23.9602 65.4546 28.2078C70.3297 35.9424 69.6847 45.7993 63.9059 53.0131C58.1812 60.1029 48.519 63.0395 39.7939 60.2362C39.1274 60.0168 38.4919 59.899 37.8393 59.9902C37.1808 60.0823 36.5871 60.3752 35.9801 60.832C32.159 63.6661 28.2089 65.2974 24.1943 65.689C20.1819 66.0805 16.0565 65.2384 11.8732 63.0498L11.8679 63.047C7.64541 60.8809 4.56083 58.0077 2.63672 54.5498C0.713159 51.0929 -0.0776766 47.0031 0.365777 42.3578L0.366095 42.3543C0.78187 37.7717 2.27585 33.9299 4.74956 30.8313C7.2251 27.7304 10.7132 25.3348 15.1763 23.6979L15.1768 23.6977C19.9544 21.941 24.777 22.0834 29.6156 23.6055L29.625 23.6084L29.6346 23.6112C30.0035 23.7166 30.4596 23.7758 30.8905 23.7585C31.2775 23.743 31.8191 23.6599 32.2092 23.3184C36.024 20.1934 40.4005 18.5017 45.2866 18.0359C45.5106 18.0305 45.6965 17.9668 45.8298 17.9161C45.8867 17.8945 45.9495 17.8688 46.0081 17.8449C46.0226 17.8389 46.0369 17.8331 46.0507 17.8275C46.1251 17.7972 46.2046 17.7654 46.296 17.7317ZM29.1635 45.9051L28.5311 45.7727L28.3067 46.3787C28.1083 46.9143 27.935 47.4003 27.7668 47.8721C27.6537 48.1896 27.5428 48.5006 27.4281 48.8159C27.0105 48.6631 26.703 48.4596 26.4604 48.2176C26.1035 47.8617 25.8331 47.3692 25.5988 46.6768C23.7588 40.9042 24.2595 35.368 26.9843 29.9335L26.9918 29.9185L26.9986 29.9032L27.2538 29.3317L27.5091 28.7602L27.8547 27.9863L27.0445 27.7374C19.1538 25.3138 10.2463 29.2808 6.47507 36.704L6.47478 36.7046C2.63471 44.2794 4.9323 53.3626 11.8783 58.3028C15.2724 60.736 19.373 61.6817 23.1454 61.5065C26.9043 61.3319 30.4319 60.0381 32.6437 57.8729L33.1559 57.3715L32.6782 56.8371C31.9728 56.048 31.2684 55.2696 30.5479 54.4735C29.9234 53.7836 29.2869 53.0802 28.6273 52.345C28.7719 52.2871 28.9078 52.2156 29.0351 52.13C29.5484 51.7846 29.8003 51.2871 29.9639 50.878C30.025 50.7253 30.0825 50.5611 30.1337 50.4146C30.1497 50.3689 30.1651 50.3249 30.1798 50.2835C30.2462 50.0967 30.3079 49.9353 30.3797 49.7883C30.4422 49.6604 30.5101 49.5481 30.5902 49.4498C31.5644 50.1797 32.5963 50.9416 33.6579 51.7255C34.4692 52.3245 35.2979 52.9364 36.1314 53.5566L36.7807 54.0397L37.2131 53.3556C40.3229 48.4351 40.693 43.3302 38.8965 37.9327C39.7174 38.1385 40.4312 38.3189 41.1454 38.4993L41.7907 38.6624L42.0293 38.041C42.3106 37.308 42.5709 36.6447 42.8242 36.0045C42.8755 36.1479 42.9268 36.2902 42.9778 36.4317C43.3675 37.5133 43.7391 38.5445 43.9575 39.6162C45.0473 45.058 44.0263 50.2409 41.1552 55.1039L40.6995 55.8757L41.5396 56.1881C48.7693 58.877 57.7867 55.3144 61.9291 48.407L61.9292 48.4067C66.2485 41.1966 64.6744 31.9434 58.185 26.5868L58.1846 26.5865C51.9279 21.4283 42.3315 21.0714 36.5208 25.8982L35.9431 26.3781L36.4237 26.9551C37.7194 28.511 38.675 29.6587 39.3602 30.5592C40.0531 31.4697 40.4193 32.0645 40.586 32.5177C40.7336 32.9192 40.7226 33.2009 40.604 33.5355C40.4942 33.8449 40.2979 34.1874 39.9936 34.6716C39.7141 34.6029 39.4246 34.5373 39.1436 34.4737C38.8412 34.4052 38.5487 34.339 38.2892 34.2735C37.5657 34.0907 36.9413 33.8817 36.4389 33.5672C35.8769 33.2127 35.3774 32.7299 34.8475 32.1436C34.6528 31.9282 34.4406 31.6826 34.2179 31.4248C33.8757 31.0287 33.5087 30.6039 33.142 30.2155L32.4701 29.5036L31.9576 30.3376C28.6834 35.6664 28.245 40.7696 30.0219 46.0904C29.7349 46.0261 29.4598 45.9671 29.1635 45.9051Z" fill="white" stroke="white" stroke-width="1.5"/>
</g>
<defs>
<clipPath id="clip0_433_1452">
<rect width="72" height="72" fill="white"/>
</clipPath>
</defs>
</svg>
